<?xml version="1.0" encoding="utf-8"?>
<!-- Generator: Adobe Illustrator 18.0.0, SVG Export Plug-In . SVG Version: 6.00 Build 0)  -->
<!DOCTYPE svg PUBLIC "-//W3C//DTD SVG 1.1//EN" "http://www.w3.org/Graphics/SVG/1.1/DTD/svg11.dtd">
<svg version="1.1" id="Layer_1" xmlns="http://www.w3.org/2000/svg" xmlns:xlink="http://www.w3.org/1999/xlink" x="0px" y="0px"
	 viewBox="0 0 445.3 182.9" enable-background="new 0 0 445.3 182.9" xml:space="preserve">
<g>
	<g>
		<path fill="#FFFFFF" d="M205.1,145.3h-77.6c-3.5,0-6.4-2.9-6.4-6.4V72h90.4v66.9C211.5,142.5,208.6,145.3,205.1,145.3z"/>
		<g>
			<path fill="#106587" d="M205.1,146.9h-77.6c-4.4,0-8-3.6-8-8V28.4c0-4.4,3.6-8,8-8h77.6c4.4,0,8,3.6,8,8v110.5
				C213.1,143.3,209.5,146.9,205.1,146.9z M127.5,23.6c-2.7,0-4.8,2.2-4.8,4.8v110.5c0,2.7,2.2,4.8,4.8,4.8h77.6
				c2.7,0,4.8-2.2,4.8-4.8V28.4c0-2.7-2.2-4.8-4.8-4.8H127.5z"/>
			<path fill="#106587" d="M166.3,128.4c-14.5,0-26.3-11.8-26.3-26.3s11.8-26.3,26.3-26.3s26.3,11.8,26.3,26.3
				S180.8,128.4,166.3,128.4z M166.3,79c-12.7,0-23.1,10.4-23.1,23.1c0,12.7,10.4,23.1,23.1,23.1c12.7,0,23.1-10.4,23.1-23.1
				C189.4,89.4,179,79,166.3,79z"/>
			<path fill="#106587" d="M166.3,68.5c-9.2,0-16.7-7.5-16.7-16.7c0-9.2,7.5-16.7,16.7-16.7c9.2,0,16.7,7.5,16.7,16.7
				C183,61,175.5,68.5,166.3,68.5z M166.3,38.1c-7.5,0-13.6,6.1-13.6,13.6s6.1,13.6,13.6,13.6s13.6-6.1,13.6-13.6
				S173.8,38.1,166.3,38.1z"/>
			<circle fill="#106587" cx="166.3" cy="51.7" r="8.3"/>
			<circle fill="#106587" cx="166.3" cy="102.1" r="8.3"/>
			<circle fill="#106587" cx="131.9" cy="34.2" r="2.3"/>
			<circle fill="#FFFFFF" cx="142.5" cy="34.2" r="2.3"/>
			<path fill="#106587" d="M199.5,137.6h-65.4c-0.9,0-1.6-0.7-1.6-1.6s0.7-1.6,1.6-1.6h65.4c0.9,0,1.6,0.7,1.6,1.6
				S200.4,137.6,199.5,137.6z"/>
		</g>
		<path fill="#106587" d="M305.5,145.3h-77.6c-3.5,0-6.4-2.9-6.4-6.4V72h90.4v66.9C311.9,142.5,309,145.3,305.5,145.3z"/>
		<g>
			<path fill="#106587" d="M305.5,146.9h-77.6c-4.4,0-8-3.6-8-8V28.4c0-4.4,3.6-8,8-8h77.6c4.4,0,8,3.6,8,8v110.5
				C313.4,143.3,309.9,146.9,305.5,146.9z M227.9,23.6c-2.7,0-4.8,2.2-4.8,4.8v110.5c0,2.7,2.2,4.8,4.8,4.8h77.6
				c2.7,0,4.8-2.2,4.8-4.8V28.4c0-2.7-2.2-4.8-4.8-4.8H227.9z"/>
			<path fill="#FFFFFF" d="M266.7,128.4c-14.5,0-26.3-11.8-26.3-26.3s11.8-26.3,26.3-26.3s26.3,11.8,26.3,26.3
				S281.2,128.4,266.7,128.4z M266.7,79c-12.7,0-23.1,10.4-23.1,23.1c0,12.7,10.4,23.1,23.1,23.1s23.1-10.4,23.1-23.1
				C289.8,89.4,279.4,79,266.7,79z"/>
			<path fill="#106587" d="M266.7,68.5c-9.2,0-16.7-7.5-16.7-16.7c0-9.2,7.5-16.7,16.7-16.7s16.7,7.5,16.7,16.7
				C283.4,61,275.9,68.5,266.7,68.5z M266.7,38.1c-7.5,0-13.6,6.1-13.6,13.6s6.1,13.6,13.6,13.6s13.6-6.1,13.6-13.6
				S274.2,38.1,266.7,38.1z"/>
			<circle fill="#106587" cx="266.7" cy="51.7" r="8.3"/>
			<circle fill="#FFFFFF" cx="266.7" cy="102.1" r="8.3"/>
			<circle fill="#106587" cx="232.2" cy="34.2" r="2.3"/>
			<circle fill="#E45F58" cx="242.9" cy="34.2" r="2.3"/>
			<path fill="#FFFFFF" d="M299.9,137.6h-65.4c-0.9,0-1.6-0.7-1.6-1.6s0.7-1.6,1.6-1.6h65.4c0.9,0,1.6,0.7,1.6,1.6
				S300.8,137.6,299.9,137.6z"/>
		</g>
		<path fill="#106587" d="M172.6,166.9c-6.6,0-14.1-0.1-22.3-0.1c-9.4-0.1-19.1-0.2-29.4-0.2h-5.5c-0.9,0-1.6-0.7-1.6-1.6
			s0.7-1.6,1.6-1.6h5.5c10.3,0,20,0.1,29.4,0.2c31.9,0.3,59.5,0.5,63.3-3.3c0,0,0.2-0.2,0.2-0.2c-0.1-0.4-1.6-2.4-18.6-3.2
			c-11.8-0.5-28-0.4-46.9-0.3c-8.8,0.1-17.9,0.1-27.5,0.1h-11c-12.1,0-23.8,0.2-34.2,0.3c-36.7,0.5-56,0.5-60.7-4
			c-0.8-0.8-1.2-1.7-1.2-2.8c0-6.9,16.6-10.9,101.6-10.9c0.9,0,1.6,0.7,1.6,1.6s-0.7,1.6-1.6,1.6c-21.8,0-49.5,0.2-69.5,1.6
			c-28.2,2-29,5.8-29,6.2c0,0.1,0,0.2,0.3,0.5c3.9,3.9,29.2,3.5,58.4,3.1c10.4-0.1,22.1-0.3,34.2-0.3h11c9.5,0,18.6-0.1,27.4-0.1
			c41.3-0.3,63.1-0.2,67.6,4.2c0.9,0.9,1,1.8,1,2.4c0,0.6-0.2,1.6-1.1,2.5C212.3,166.2,198.3,166.9,172.6,166.9z"/>
		<path fill="#106587" d="M312.3,175.4c-7.4,0-13.9,0-18.8-0.9c-2.3-0.4-9.2-1.7-9.2-7.8c0-14.6,47.8-17.3,105.5-19.3
			c16.6-0.5,33.7-1.1,38.7-2.3c-10.1-4.3-76.3-7.4-110.2-7.4c-0.9,0-1.6-0.7-1.6-1.6s0.7-1.6,1.6-1.6c12.1,0,40.6,0.7,65.9,2.2
			c14,0.8,25,1.8,33,2.9c12.9,1.8,15.4,3.4,15.4,5.7c0,3.3-5.2,4-42.8,5.2c-21.1,0.7-47.4,1.6-67.9,4c-30,3.6-34.5,9.1-34.5,12.1
			c0,1.6,0.8,3.7,6.7,4.8c4.8,0.9,11.7,0.9,19,0.9h0.8c0.9,0,1.6,0.7,1.6,1.6s-0.7,1.6-1.6,1.6h-0.8
			C312.9,175.4,312.6,175.4,312.3,175.4z"/>
		<path fill="#E45F58" d="M151.1,93c-0.3,0-0.6-0.1-0.9-0.2L69.5,43.6c-0.8-0.5-1.1-1.5-0.6-2.3c0.5-0.8,1.5-1.1,2.3-0.6L152,89.8
			c0.8,0.5,1.1,1.5,0.6,2.3C152.2,92.7,151.7,93,151.1,93z"/>
		<path fill="#E45F58" d="M134.2,99.2c-0.1,0-0.1,0-0.2,0l-95.4-9.7c-0.9-0.1-1.6-0.9-1.5-1.9c0.1-0.9,0.9-1.6,1.9-1.5l95.4,9.7
			c0.9,0.1,1.6,0.9,1.5,1.9C135.8,98.5,135,99.2,134.2,99.2z"/>
		<path fill="#E45F58" d="M84.3,131.8c-0.7,0-1.3-0.4-1.6-1.1c-0.3-0.9,0.1-1.9,1-2.2l64-23c0.9-0.3,1.9,0.1,2.2,1
			c0.3,0.9-0.1,1.9-1,2.2l-64,23C84.7,131.8,84.5,131.8,84.3,131.8z"/>
		<g>
			<path fill="#FFFFFF" d="M43.1,61.5c-0.1,0-0.2,0-0.3-0.1L41.4,61c-0.5-0.2-0.8-0.7-0.6-1.3s0.7-0.8,1.3-0.6l1.4,0.5
				c0.5,0.2,0.8,0.7,0.6,1.3C43.9,61.3,43.5,61.5,43.1,61.5z"/>
			<path fill="#FFFFFF" d="M104.5,82.5c-0.1,0-0.2,0-0.3-0.1l-2.9-1c-0.5-0.2-0.8-0.7-0.6-1.3c0.2-0.5,0.7-0.8,1.3-0.6l2.9,1
				c0.5,0.2,0.8,0.7,0.6,1.3C105.3,82.3,105,82.5,104.5,82.5z M96.9,79.9c-0.1,0-0.2,0-0.3-0.1l-2.9-1c-0.5-0.2-0.8-0.7-0.6-1.3
				c0.2-0.5,0.7-0.8,1.3-0.6l2.9,1c0.5,0.2,0.8,0.7,0.6,1.3C97.7,79.7,97.3,79.9,96.9,79.9z M89.2,77.3c-0.1,0-0.2,0-0.3-0.1l-2.9-1
				c-0.5-0.2-0.8-0.7-0.6-1.3c0.2-0.5,0.7-0.8,1.3-0.6l2.9,1c0.5,0.2,0.8,0.7,0.6,1.3C90,77,89.6,77.3,89.2,77.3z M81.5,74.7
				c-0.1,0-0.2,0-0.3-0.1l-2.9-1c-0.5-0.2-0.8-0.7-0.6-1.3c0.2-0.5,0.7-0.8,1.3-0.6l2.9,1c0.5,0.2,0.8,0.7,0.6,1.3
				C82.3,74.4,81.9,74.7,81.5,74.7z M73.8,72c-0.1,0-0.2,0-0.3-0.1l-2.9-1c-0.5-0.2-0.8-0.7-0.6-1.3c0.2-0.5,0.7-0.8,1.3-0.6l2.9,1
				c0.5,0.2,0.8,0.7,0.6,1.3C74.6,71.8,74.2,72,73.8,72z M66.1,69.4c-0.1,0-0.2,0-0.3-0.1l-2.9-1c-0.5-0.2-0.8-0.7-0.6-1.3
				c0.2-0.5,0.7-0.8,1.3-0.6l2.9,1c0.5,0.2,0.8,0.7,0.6,1.3C66.9,69.2,66.6,69.4,66.1,69.4z M58.5,66.8c-0.1,0-0.2,0-0.3-0.1l-2.9-1
				c-0.5-0.2-0.8-0.7-0.6-1.3c0.2-0.5,0.7-0.8,1.3-0.6l2.9,1c0.5,0.2,0.8,0.7,0.6,1.3C59.3,66.5,58.9,66.8,58.5,66.8z M50.8,64.2
				c-0.1,0-0.2,0-0.3-0.1l-2.9-1c-0.5-0.2-0.8-0.7-0.6-1.3c0.2-0.5,0.7-0.8,1.3-0.6l2.9,1c0.5,0.2,0.8,0.7,0.6,1.3
				C51.6,63.9,51.2,64.2,50.8,64.2z"/>
			<path fill="#FFFFFF" d="M110.8,84.7c-0.1,0-0.2,0-0.3-0.1l-1.4-0.5c-0.5-0.2-0.8-0.7-0.6-1.3c0.2-0.5,0.7-0.8,1.3-0.6l1.4,0.5
				c0.5,0.2,0.8,0.7,0.6,1.3C111.6,84.4,111.2,84.7,110.8,84.7z"/>
		</g>
		<g>
			<path fill="#FFFFFF" d="M40.4,117.2c-0.5,0-0.9-0.4-1-0.9c-0.1-0.5,0.3-1,0.9-1.1l1.5-0.2c0.5-0.1,1,0.3,1.1,0.9
				c0.1,0.5-0.3,1-0.9,1.1l-1.5,0.2C40.5,117.2,40.4,117.2,40.4,117.2z"/>
			<path fill="#FFFFFF" d="M46.9,116.4c-0.5,0-0.9-0.4-1-0.9c-0.1-0.5,0.3-1,0.9-1.1l3-0.4c0.5-0.1,1,0.3,1.1,0.9
				c0.1,0.5-0.3,1-0.9,1.1l-3,0.4C47,116.4,47,116.4,46.9,116.4z M55,115.4c-0.5,0-0.9-0.4-1-0.9c-0.1-0.5,0.3-1,0.9-1.1l3-0.4
				c0.5-0.1,1,0.3,1.1,0.9c0.1,0.5-0.3,1-0.9,1.1l-3,0.4C55.1,115.4,55,115.4,55,115.4z M63,114.4c-0.5,0-0.9-0.4-1-0.9
				c-0.1-0.5,0.3-1,0.9-1.1l3-0.4c0.5-0.1,1,0.3,1.1,0.9c0.1,0.5-0.3,1-0.9,1.1l-3,0.4C63.1,114.4,63.1,114.4,63,114.4z M71.1,113.4
				c-0.5,0-0.9-0.4-1-0.9c-0.1-0.5,0.3-1,0.9-1.1l3-0.4c0.5-0.1,1,0.3,1.1,0.9c0.1,0.5-0.3,1-0.9,1.1l-3,0.4
				C71.2,113.4,71.1,113.4,71.1,113.4z M79.1,112.4c-0.5,0-0.9-0.4-1-0.9c-0.1-0.5,0.3-1,0.9-1.1l3-0.4c0.5-0.1,1,0.3,1.1,0.9
				c0.1,0.5-0.3,1-0.9,1.1l-3,0.4C79.2,112.4,79.2,112.4,79.1,112.4z M87.2,111.5c-0.5,0-0.9-0.4-1-0.9c-0.1-0.5,0.3-1,0.9-1.1
				l3-0.4c0.5-0.1,1,0.3,1.1,0.9c0.1,0.5-0.3,1-0.9,1.1l-3,0.4C87.3,111.5,87.2,111.5,87.2,111.5z M95.3,110.5c-0.5,0-0.9-0.4-1-0.9
				c-0.1-0.5,0.3-1,0.9-1.1l3-0.4c0.5-0.1,1,0.3,1.1,0.9c0.1,0.5-0.3,1-0.9,1.1l-3,0.4C95.3,110.5,95.3,110.5,95.3,110.5z
				 M103.3,109.5c-0.5,0-0.9-0.4-1-0.9c-0.1-0.5,0.3-1,0.9-1.1l3-0.4c0.5-0.1,1,0.3,1.1,0.9c0.1,0.5-0.3,1-0.9,1.1l-3,0.4
				C103.4,109.5,103.4,109.5,103.3,109.5z"/>
			<path fill="#FFFFFF" d="M111.4,108.5c-0.5,0-0.9-0.4-1-0.9c-0.1-0.5,0.3-1,0.9-1.1l1.5-0.2c0.5-0.1,1,0.3,1.1,0.9s-0.3,1-0.9,1.1
				l-1.5,0.2C111.5,108.5,111.4,108.5,111.4,108.5z"/>
		</g>
		<path fill="#E45F58" d="M283.3,93c-0.6,0-1.1-0.3-1.4-0.8c-0.5-0.8-0.2-1.8,0.6-2.3l80.7-49.1c0.8-0.5,1.8-0.2,2.3,0.6
			c0.5,0.8,0.2,1.8-0.6,2.3l-80.7,49.1C283.9,92.9,283.6,93,283.3,93z"/>
		<path fill="#E45F58" d="M300.2,99.2c-0.9,0-1.6-0.7-1.7-1.5c-0.1-0.9,0.6-1.8,1.5-1.9l95.4-9.7c0.9-0.1,1.8,0.6,1.9,1.5
			c0.1,0.9-0.6,1.8-1.5,1.9l-95.4,9.7C300.4,99.2,300.3,99.2,300.2,99.2z"/>
		<path fill="#E45F58" d="M350.1,131.8c-0.2,0-0.4,0-0.6-0.1l-64-23c-0.9-0.3-1.3-1.3-1-2.2s1.3-1.3,2.2-1l64,23
			c0.9,0.3,1.3,1.3,1,2.2C351.5,131.4,350.8,131.8,350.1,131.8z"/>
		<g>
			<path fill="#FFFFFF" d="M391.3,61.5c-0.4,0-0.8-0.3-0.9-0.7c-0.2-0.5,0.1-1.1,0.6-1.3l1.4-0.5c0.5-0.2,1.1,0.1,1.3,0.6
				s-0.1,1.1-0.6,1.3l-1.4,0.5C391.5,61.5,391.4,61.5,391.3,61.5z"/>
			<path fill="#FFFFFF" d="M329.9,82.5c-0.4,0-0.8-0.3-0.9-0.7c-0.2-0.5,0.1-1.1,0.6-1.3l2.9-1c0.5-0.2,1.1,0.1,1.3,0.6
				c0.2,0.5-0.1,1.1-0.6,1.3l-2.9,1C330.1,82.5,330,82.5,329.9,82.5z M337.5,79.9c-0.4,0-0.8-0.3-0.9-0.7c-0.2-0.5,0.1-1.1,0.6-1.3
				l2.9-1c0.5-0.2,1.1,0.1,1.3,0.6c0.2,0.5-0.1,1.1-0.6,1.3l-2.9,1C337.8,79.9,337.7,79.9,337.5,79.9z M345.2,77.3
				c-0.4,0-0.8-0.3-0.9-0.7c-0.2-0.5,0.1-1.1,0.6-1.3l2.9-1c0.5-0.2,1.1,0.1,1.3,0.6c0.2,0.5-0.1,1.1-0.6,1.3l-2.9,1
				C345.4,77.3,345.3,77.3,345.2,77.3z M352.9,74.7c-0.4,0-0.8-0.3-0.9-0.7c-0.2-0.5,0.1-1.1,0.6-1.3l2.9-1c0.5-0.2,1.1,0.1,1.3,0.6
				c0.2,0.5-0.1,1.1-0.6,1.3l-2.9,1C353.1,74.6,353,74.7,352.9,74.7z M360.6,72c-0.4,0-0.8-0.3-0.9-0.7c-0.2-0.5,0.1-1.1,0.6-1.3
				l2.9-1c0.5-0.2,1.1,0.1,1.3,0.6c0.2,0.5-0.1,1.1-0.6,1.3l-2.9,1C360.8,72,360.7,72,360.6,72z M368.3,69.4c-0.4,0-0.8-0.3-0.9-0.7
				c-0.2-0.5,0.1-1.1,0.6-1.3l2.9-1c0.5-0.2,1.1,0.1,1.3,0.6c0.2,0.5-0.1,1.1-0.6,1.3l-2.9,1C368.5,69.4,368.4,69.4,368.3,69.4z
				 M376,66.8c-0.4,0-0.8-0.3-0.9-0.7c-0.2-0.5,0.1-1.1,0.6-1.3l2.9-1c0.5-0.2,1.1,0.1,1.3,0.6c0.2,0.5-0.1,1.1-0.6,1.3l-2.9,1
				C376.2,66.8,376.1,66.8,376,66.8z M383.6,64.2c-0.4,0-0.8-0.3-0.9-0.7c-0.2-0.5,0.1-1.1,0.6-1.3l2.9-1c0.5-0.2,1.1,0.1,1.3,0.6
				c0.2,0.5-0.1,1.1-0.6,1.3l-2.9,1C383.8,64.1,383.7,64.2,383.6,64.2z"/>
			<path fill="#FFFFFF" d="M323.6,84.7c-0.4,0-0.8-0.3-0.9-0.7c-0.2-0.5,0.1-1.1,0.6-1.3l1.4-0.5c0.5-0.2,1.1,0.1,1.3,0.6
				c0.2,0.5-0.1,1.1-0.6,1.3l-1.4,0.5C323.9,84.7,323.8,84.7,323.6,84.7z"/>
		</g>
		<g>
			<path fill="#FFFFFF" d="M394,117.2c0,0-0.1,0-0.1,0l-1.5-0.2c-0.5-0.1-0.9-0.6-0.9-1.1c0.1-0.5,0.5-1,1.1-0.9l1.5,0.2
				c0.5,0.1,0.9,0.6,0.9,1.1C395,116.8,394.5,117.2,394,117.2z"/>
			<path fill="#FFFFFF" d="M387.5,116.4c0,0-0.1,0-0.1,0l-3-0.4c-0.5-0.1-0.9-0.6-0.9-1.1c0.1-0.5,0.5-0.9,1.1-0.9l3,0.4
				c0.5,0.1,0.9,0.6,0.9,1.1C388.4,116,388,116.4,387.5,116.4z M379.4,115.4c0,0-0.1,0-0.1,0l-3-0.4c-0.5-0.1-0.9-0.6-0.9-1.1
				c0.1-0.5,0.5-0.9,1.1-0.9l3,0.4c0.5,0.1,0.9,0.6,0.9,1.1C380.4,115,379.9,115.4,379.4,115.4z M371.4,114.4c0,0-0.1,0-0.1,0
				l-3-0.4c-0.5-0.1-0.9-0.6-0.9-1.1c0.1-0.5,0.5-1,1.1-0.9l3,0.4c0.5,0.1,0.9,0.6,0.9,1.1C372.3,114,371.9,114.4,371.4,114.4z
				 M363.3,113.4c0,0-0.1,0-0.1,0l-3-0.4c-0.5-0.1-0.9-0.6-0.9-1.1c0.1-0.5,0.5-0.9,1.1-0.9l3,0.4c0.5,0.1,0.9,0.6,0.9,1.1
				C364.3,113.1,363.8,113.4,363.3,113.4z M355.3,112.4c0,0-0.1,0-0.1,0l-3-0.4c-0.5-0.1-0.9-0.6-0.9-1.1c0.1-0.5,0.6-1,1.1-0.9
				l3,0.4c0.5,0.1,0.9,0.6,0.9,1.1C356.2,112.1,355.8,112.4,355.3,112.4z M347.2,111.5c0,0-0.1,0-0.1,0l-3-0.4
				c-0.5-0.1-0.9-0.6-0.9-1.1c0.1-0.5,0.6-1,1.1-0.9l3,0.4c0.5,0.1,0.9,0.6,0.9,1.1C348.1,111.1,347.7,111.5,347.2,111.5z
				 M339.2,110.5c0,0-0.1,0-0.1,0l-3-0.4c-0.5-0.1-0.9-0.6-0.9-1.1c0.1-0.5,0.5-0.9,1.1-0.9l3,0.4c0.5,0.1,0.9,0.6,0.9,1.1
				C340.1,110.1,339.7,110.5,339.2,110.5z M331.1,109.5c0,0-0.1,0-0.1,0l-3-0.4c-0.5-0.1-0.9-0.6-0.9-1.1c0.1-0.5,0.5-1,1.1-0.9
				l3,0.4c0.5,0.1,0.9,0.6,0.9,1.1C332,109.1,331.6,109.5,331.1,109.5z"/>
			<path fill="#FFFFFF" d="M323,108.5c0,0-0.1,0-0.1,0l-1.5-0.2c-0.5-0.1-0.9-0.6-0.9-1.1c0.1-0.5,0.6-0.9,1.1-0.9l1.5,0.2
				c0.5,0.1,0.9,0.6,0.9,1.1C324,108.1,323.5,108.5,323,108.5z"/>
		</g>
	</g>
	<path fill="#FFFFFF" d="M334.1,35.6c-0.8,0-1.5-0.4-1.9-1c-0.7-1.1-0.4-2.5,0.6-3.2l13.3-8.9l-4.8-0.6c-1-0.1-1.8-0.8-2-1.8
		s0.1-1.9,0.9-2.5l12.8-8.8c1.1-0.7,2.5-0.5,3.2,0.6c0.7,1.1,0.5,2.5-0.6,3.2l-7.7,5.3l4.9,0.6c1,0.1,1.8,0.8,2,1.8s-0.2,1.9-1,2.5
		l-18.6,12.4C335,35.4,334.6,35.6,334.1,35.6z"/>
	<path fill="#FFFFFF" d="M97.6,35.6c-0.4,0-0.9-0.1-1.3-0.4L77.8,22.8c-0.8-0.5-1.2-1.5-1-2.5s1-1.7,2-1.8l4.9-0.6L76,12.7
		c-1.1-0.7-1.3-2.2-0.6-3.2c0.7-1.1,2.2-1.3,3.2-0.6l12.8,8.8c0.8,0.5,1.2,1.5,0.9,2.5s-1,1.6-2,1.8l-4.8,0.6l13.3,8.9
		c1.1,0.7,1.4,2.2,0.6,3.2C99.1,35.2,98.4,35.6,97.6,35.6z"/>
</g>
</svg>
