<?xml version="1.0" encoding="utf-8"?>
<!-- Generator: Adobe Illustrator 18.0.0, SVG Export Plug-In . SVG Version: 6.00 Build 0)  -->
<!DOCTYPE svg PUBLIC "-//W3C//DTD SVG 1.1//EN" "http://www.w3.org/Graphics/SVG/1.1/DTD/svg11.dtd">
<svg version="1.1" id="Layer_1" xmlns="http://www.w3.org/2000/svg" xmlns:xlink="http://www.w3.org/1999/xlink" x="0px" y="0px"
	 viewBox="0 0 260.7 269.2" enable-background="new 0 0 260.7 269.2" xml:space="preserve">
<g>
	<g>
		<rect x="45.7" y="69.9" fill="#E9F3F7" width="171.7" height="143.3"/>
		<g>
			<g>
				<g>
					<path fill="#FFFFFF" d="M203.6,137.9c0,39.8-32.3,72.1-72.1,72.1s-72.1-32.3-72.1-72.1"/>
					<path fill="#106587" d="M131.5,212.5c-41.1,0-74.6-33.5-74.6-74.6c0-1.4,1.1-2.5,2.5-2.5s2.5,1.1,2.5,2.5
						c0,38.4,31.3,69.7,69.7,69.7c38.4,0,69.7-31.3,69.7-69.7c0-1.4,1.1-2.5,2.5-2.5s2.5,1.1,2.5,2.5
						C206.1,179,172.6,212.5,131.5,212.5z"/>
				</g>
				<path fill="#E45F58" d="M189.9,69.2c-14.8-13.5-35.7-21-58.7-21c-23,0-43.8,7.4-58.7,21c-16,14.5-24.4,35.2-24.4,59.6
					c0,1.4,1.1,2.5,2.5,2.5h161.2c1.4,0,2.5-1.1,2.5-2.5C214.3,104.4,205.8,83.7,189.9,69.2z"/>
				<circle fill="#106587" cx="89.1" cy="147.5" r="4.3"/>
				<circle fill="#106587" cx="135.8" cy="147.5" r="4.3"/>
				<path fill="#106587" d="M131.5,182.3c-0.3,0-0.6-0.1-1-0.2c-16.7-7-30.3-0.2-30.5-0.1c-1.2,0.6-2.7,0.1-3.3-1.1
					c-0.6-1.2-0.2-2.7,1.1-3.3c0.6-0.3,15.8-8,34.7-0.1c1.3,0.5,1.9,2,1.3,3.2C133.4,181.7,132.4,182.3,131.5,182.3z"/>
			</g>
			<path fill="#106587" d="M178.9,169.5c-0.5,0-0.9-0.1-1.3-0.4c-0.7-0.5-1.2-1.3-1.2-2.1v-14.5l-6.6,5.7c-0.7,0.6-1.8,0.8-2.7,0.4
				c-0.9-0.4-1.4-1.3-1.4-2.3v-18.5c0-1.4,1.1-2.5,2.5-2.5s2.5,1.1,2.5,2.5v13l6.6-5.7c0.7-0.6,1.8-0.8,2.7-0.4
				c0.9,0.4,1.4,1.3,1.4,2.3v14.9c3.7-3.5,8.9-10.9,8.9-24.2c0-1.4,1.1-2.5,2.5-2.5s2.5,1.1,2.5,2.5c0,23.3-14.6,31-15.2,31.3
				C179.7,169.4,179.3,169.5,178.9,169.5z"/>
		</g>
		<path fill="#2F9ED4" d="M228.7,227.1H33.7c-1.4,0-2.5-1.1-2.5-2.5V58.2c0-1.4,1.1-2.5,2.5-2.5H68c1.4,0,2.5,1.1,2.5,2.5
			s-1.1,2.5-2.5,2.5H36.2v161.5h190.1V60.7h-34.5c-1.4,0-2.5-1.1-2.5-2.5s1.1-2.5,2.5-2.5h37c1.4,0,2.5,1.1,2.5,2.5v166.5
			C231.2,226,230.1,227.1,228.7,227.1z"/>
	</g>
	<g>
		<g>
			<path fill="#106587" d="M108.3,28.4V16.9c0-1.1,0.9-2,2.1-2c1.1,0,2,0.9,2,2v11.4c0,4.3,2.2,6.6,5.9,6.6c3.6,0,5.9-2.2,5.9-6.5
				V16.9c0-1.1,0.9-2,2.1-2c1.1,0,2,0.9,2,2v11.4c0,7-3.9,10.5-10,10.5C112.2,38.7,108.3,35.2,108.3,28.4z"/>
			<path fill="#106587" d="M136.1,34.4l7.2-6.1c3.2-2.7,4.4-4.2,4.4-6.3c0-2.3-1.6-3.6-3.8-3.6c-1.9,0-3.2,0.9-4.6,2.6
				c-0.3,0.3-0.8,0.6-1.4,0.6c-1,0-1.9-0.8-1.9-1.9c0-0.4,0.2-0.9,0.5-1.3c1.9-2.4,4.1-3.8,7.7-3.8c4.6,0,7.7,2.8,7.7,7v0.1
				c0,3.7-1.9,5.7-6.1,9l-4.8,4h9.5c1,0,1.8,0.8,1.8,1.8s-0.8,1.8-1.8,1.8h-13.2c-1.3,0-2.2-0.7-2.2-1.9
				C135,35.6,135.4,35,136.1,34.4z"/>
		</g>
	</g>
	<g>
		<g>
			<path fill="#106587" d="M19.5,245.2h-2.4c-0.6,0-1.2-0.5-1.2-1.2c0-0.6,0.5-1.2,1.2-1.2h7.4c0.6,0,1.2,0.5,1.2,1.2
				c0,0.6-0.5,1.2-1.2,1.2h-2.4v8c0,0.7-0.6,1.3-1.3,1.3c-0.7,0-1.3-0.6-1.3-1.3V245.2z"/>
			<path fill="#106587" d="M28.8,244.1c0-0.7,0.6-1.3,1.3-1.3s1.3,0.6,1.3,1.3v3.4H36v-3.4c0-0.7,0.6-1.3,1.3-1.3
				c0.7,0,1.3,0.6,1.3,1.3v9.1c0,0.7-0.6,1.3-1.3,1.3c-0.7,0-1.3-0.6-1.3-1.3v-3.4h-4.7v3.4c0,0.7-0.6,1.3-1.3,1.3s-1.3-0.6-1.3-1.3
				V244.1z"/>
			<path fill="#106587" d="M42.6,253.1v-8.9c0-0.7,0.6-1.3,1.3-1.3h6.4c0.6,0,1.1,0.5,1.1,1.1s-0.5,1.1-1.1,1.1h-5.1v2.3h4.4
				c0.6,0,1.1,0.5,1.1,1.1s-0.5,1.1-1.1,1.1h-4.4v2.4h5.2c0.6,0,1.1,0.5,1.1,1.1s-0.5,1.1-1.1,1.1h-6.4
				C43.1,254.4,42.6,253.8,42.6,253.1z"/>
			<path fill="#106587" d="M61.1,244.2c0-0.7,0.6-1.3,1.3-1.3h4.1c1.3,0,2.3,0.4,3,1c0.5,0.5,0.8,1.2,0.8,2v0c0,1.3-0.7,2-1.5,2.5
				c1.3,0.5,2.1,1.3,2.1,2.8v0c0,2.1-1.7,3.1-4.3,3.1h-4.2c-0.7,0-1.3-0.6-1.3-1.3V244.2z M65.8,247.5c1.1,0,1.8-0.4,1.8-1.2v0
				c0-0.8-0.6-1.2-1.7-1.2h-2.5v2.4H65.8z M66.5,252.2c1.1,0,1.8-0.4,1.8-1.2v0c0-0.8-0.6-1.2-1.9-1.2h-2.9v2.5H66.5z"/>
			<path fill="#106587" d="M74.2,253.1v-8.9c0-0.7,0.6-1.3,1.3-1.3h6.4c0.6,0,1.1,0.5,1.1,1.1s-0.5,1.1-1.1,1.1h-5.1v2.3h4.4
				c0.6,0,1.1,0.5,1.1,1.1s-0.5,1.1-1.1,1.1h-4.4v2.4h5.2c0.6,0,1.1,0.5,1.1,1.1s-0.5,1.1-1.1,1.1h-6.4
				C74.8,254.4,74.2,253.8,74.2,253.1z"/>
			<path fill="#106587" d="M86.3,253.2c-0.3-0.2-0.5-0.6-0.5-1c0-0.7,0.5-1.2,1.2-1.2c0.3,0,0.6,0.1,0.7,0.2c0.9,0.6,1.8,1,2.9,1
				c1,0,1.7-0.4,1.7-1.1v0c0-0.6-0.4-1-2.3-1.5c-2.3-0.6-3.8-1.2-3.8-3.5v0c0-2.1,1.7-3.5,4-3.5c1.4,0,2.6,0.4,3.6,1
				c0.3,0.2,0.6,0.5,0.6,1c0,0.7-0.5,1.2-1.2,1.2c-0.2,0-0.4-0.1-0.6-0.2c-0.8-0.5-1.6-0.8-2.4-0.8c-1,0-1.5,0.4-1.5,1v0
				c0,0.8,0.5,1,2.5,1.5c2.3,0.6,3.6,1.4,3.6,3.4v0c0,2.3-1.7,3.6-4.2,3.6C89.1,254.5,87.5,254.1,86.3,253.2z"/>
			<path fill="#106587" d="M100.7,245.2h-2.4c-0.6,0-1.2-0.5-1.2-1.2c0-0.6,0.5-1.2,1.2-1.2h7.4c0.6,0,1.2,0.5,1.2,1.2
				c0,0.6-0.5,1.2-1.2,1.2h-2.4v8c0,0.7-0.6,1.3-1.3,1.3c-0.7,0-1.3-0.6-1.3-1.3V245.2z"/>
			<path fill="#106587" d="M115.7,248.7L115.7,248.7c0-3.3,2.6-6,6.1-6c3.5,0,6.1,2.6,6.1,5.9v0c0,3.3-2.6,5.9-6.1,5.9
				S115.7,251.9,115.7,248.7z M125.2,248.7L125.2,248.7c0-2-1.4-3.6-3.5-3.6s-3.4,1.6-3.4,3.6v0c0,2,1.4,3.6,3.5,3.6
				C123.8,252.2,125.2,250.6,125.2,248.7z"/>
			<path fill="#106587" d="M131.4,244.2c0-0.7,0.6-1.3,1.3-1.3h6.4c0.6,0,1.1,0.5,1.1,1.1c0,0.6-0.5,1.1-1.1,1.1H134v2.4h4.4
				c0.6,0,1.1,0.5,1.1,1.1c0,0.6-0.5,1.1-1.1,1.1H134v3.3c0,0.7-0.6,1.3-1.3,1.3c-0.7,0-1.3-0.6-1.3-1.3V244.2z"/>
			<path fill="#106587" d="M151.3,245.3l-0.9,0.2c-0.1,0-0.3,0.1-0.4,0.1c-0.6,0-1.1-0.5-1.1-1.1c0-0.5,0.3-0.9,0.8-1.1l1.6-0.5
				c0.5-0.1,0.8-0.2,1.2-0.2h0c0.7,0,1.2,0.6,1.2,1.2v9.2c0,0.7-0.6,1.2-1.2,1.2c-0.7,0-1.2-0.6-1.2-1.2V245.3z"/>
			<path fill="#106587" d="M158.5,253.7c-0.3-0.2-0.6-0.6-0.6-1c0-0.7,0.5-1.1,1.2-1.1c0.2,0,0.5,0.1,0.7,0.2
				c0.6,0.3,1.1,0.5,1.8,0.5c1.4,0,2.2-1.1,2.3-2.6c-0.6,0.5-1.3,0.8-2.3,0.8c-2.5,0-4.1-1.4-4.1-3.7v0c0-2.3,1.8-4,4.4-4
				c1.5,0,2.4,0.4,3.3,1.2c0.8,0.8,1.4,2.1,1.4,4.3v0c0,3.7-1.8,6.3-5,6.3C160.2,254.6,159.3,254.3,158.5,253.7z M164,246.6
				L164,246.6c0-1-0.8-1.8-2-1.8c-1.2,0-2,0.7-2,1.7v0c0,1,0.8,1.7,2,1.7C163.2,248.4,164,247.6,164,246.6z"/>
			<path fill="#106587" d="M169.5,251.2L169.5,251.2c0-1.4,0.6-2.2,1.9-2.8c-0.9-0.5-1.5-1.3-1.5-2.5v0c0-1.8,1.6-3.1,4-3.1
				c2.4,0,4,1.4,4,3.1v0c0,1.2-0.6,2-1.5,2.5c1.2,0.6,1.9,1.3,1.9,2.7v0c0,2.1-1.9,3.4-4.4,3.4S169.5,253.2,169.5,251.2z M175.9,251
				L175.9,251c0-0.9-0.8-1.4-2-1.4s-2,0.5-2,1.4v0c0,0.8,0.7,1.4,2,1.4C175.1,252.5,175.9,251.8,175.9,251z M175.5,246.2
				L175.5,246.2c0-0.7-0.6-1.4-1.6-1.4s-1.6,0.6-1.6,1.3v0c0,0.8,0.6,1.4,1.6,1.4C174.9,247.6,175.5,247,175.5,246.2z"/>
			<path fill="#106587" d="M181.2,248.7L181.2,248.7c0-3.4,2.1-6,5.1-6c3,0,5.1,2.6,5.1,5.9v0c0,3.3-2,5.9-5.1,5.9
				S181.2,252,181.2,248.7z M188.8,248.7L188.8,248.7c0-2.1-1-3.7-2.5-3.7c-1.5,0-2.5,1.5-2.5,3.6v0c0,2.1,1,3.7,2.5,3.7
				C187.9,252.3,188.8,250.7,188.8,248.7z"/>
			<path fill="#106587" d="M194.3,249.3c0-0.7,0.5-1.2,1.2-1.2h2.9c0.7,0,1.2,0.5,1.2,1.2s-0.5,1.2-1.2,1.2h-2.9
				C194.9,250.5,194.3,249.9,194.3,249.3z"/>
			<path fill="#106587" d="M204,245.3l-0.9,0.2c-0.1,0-0.3,0.1-0.4,0.1c-0.6,0-1.1-0.5-1.1-1.1c0-0.5,0.3-0.9,0.8-1.1l1.6-0.5
				c0.5-0.1,0.8-0.2,1.2-0.2h0c0.7,0,1.2,0.6,1.2,1.2v9.2c0,0.7-0.6,1.2-1.2,1.2s-1.2-0.6-1.2-1.2V245.3z"/>
			<path fill="#106587" d="M211.3,253.7c-0.3-0.2-0.6-0.6-0.6-1c0-0.7,0.5-1.1,1.2-1.1c0.2,0,0.5,0.1,0.7,0.2
				c0.6,0.3,1.1,0.5,1.8,0.5c1.4,0,2.2-1.1,2.3-2.6c-0.6,0.5-1.3,0.8-2.3,0.8c-2.5,0-4.1-1.4-4.1-3.7v0c0-2.3,1.8-4,4.4-4
				c1.5,0,2.4,0.4,3.3,1.2c0.8,0.8,1.4,2.1,1.4,4.3v0c0,3.7-1.8,6.3-5,6.3C213,254.6,212.1,254.3,211.3,253.7z M216.7,246.6
				L216.7,246.6c0-1-0.8-1.8-2-1.8c-1.2,0-2,0.7-2,1.7v0c0,1,0.8,1.7,2,1.7C216,248.4,216.7,247.6,216.7,246.6z"/>
			<path fill="#106587" d="M223.4,253.7c-0.3-0.2-0.6-0.6-0.6-1c0-0.7,0.5-1.1,1.2-1.1c0.2,0,0.5,0.1,0.7,0.2
				c0.6,0.3,1.1,0.5,1.8,0.5c1.4,0,2.2-1.1,2.3-2.6c-0.6,0.5-1.3,0.8-2.3,0.8c-2.5,0-4.1-1.4-4.1-3.7v0c0-2.3,1.8-4,4.4-4
				c1.5,0,2.4,0.4,3.3,1.2c0.8,0.8,1.4,2.1,1.4,4.3v0c0,3.7-1.8,6.3-5,6.3C225.2,254.6,224.3,254.3,223.4,253.7z M228.9,246.6
				L228.9,246.6c0-1-0.8-1.8-2-1.8c-1.2,0-2,0.7-2,1.7v0c0,1,0.8,1.7,2,1.7C228.2,248.4,228.9,247.6,228.9,246.6z"/>
			<path fill="#106587" d="M234.5,248.7L234.5,248.7c0-3.4,2.1-6,5.1-6c3,0,5.1,2.6,5.1,5.9v0c0,3.3-2,5.9-5.1,5.9
				S234.5,252,234.5,248.7z M242.1,248.7L242.1,248.7c0-2.1-1-3.7-2.5-3.7s-2.5,1.5-2.5,3.6v0c0,2.1,1,3.7,2.5,3.7
				C241.2,252.3,242.1,250.7,242.1,248.7z"/>
		</g>
	</g>
</g>
</svg>
