<?xml version="1.0" encoding="utf-8"?>
<!-- Generator: Adobe Illustrator 18.0.0, SVG Export Plug-In . SVG Version: 6.00 Build 0)  -->
<!DOCTYPE svg PUBLIC "-//W3C//DTD SVG 1.1//EN" "http://www.w3.org/Graphics/SVG/1.1/DTD/svg11.dtd">
<svg version="1.1" id="Layer_1" xmlns="http://www.w3.org/2000/svg" xmlns:xlink="http://www.w3.org/1999/xlink" x="0px" y="0px"
	 viewBox="0 0 391.5 295.5" enable-background="new 0 0 391.5 295.5" xml:space="preserve">
<g>
	<path fill="#59B0DC" d="M22.9,158.8c-0.5,0-1-0.2-1.2-0.7c0-0.1-0.1-0.1-0.1-0.2c-0.4-0.7-0.1-1.6,0.7-2c0.7-0.4,1.6-0.1,2,0.6
		c0.4,0.7,0.2,1.6-0.5,2C23.4,158.7,23.2,158.8,22.9,158.8z"/>
	<g>
		<path fill="#8C42C9" d="M267.8,16.2c-0.6,0-1.2-0.4-1.4-1c-0.3-0.8,0.2-1.6,0.9-1.9c0,0,0.1,0,0.1,0c0.8-0.2,1.6,0.3,1.8,1.1
			c0.2,0.8-0.3,1.6-1,1.8C268.1,16.2,268,16.2,267.8,16.2z"/>
		<path fill="#8C42C9" d="M147.4,54.7c-0.6,0-1.2-0.4-1.4-1c-0.3-0.8,0.2-1.6,0.9-1.9c0,0,0.1,0,0.1,0c0.8-0.2,1.6,0.3,1.8,1.1
			c0.2,0.8-0.3,1.6-1,1.8C147.7,54.6,147.5,54.7,147.4,54.7z"/>
		<path fill="#106587" d="M348.2,88c-1-1.3-0.8-3.2,0.5-4.3l-3.9-4.9L311.7,105l3.9,4.9c0,0,0.1-0.1,0.1-0.1c1.3-1,3.2-0.8,4.3,0.5
			c1,1.3,0.8,3.2-0.5,4.3c-0.1,0-0.1,0.1-0.2,0.1l3.9,4.9l33.1-26.2l-3.9-4.9C351.2,89.5,349.3,89.3,348.2,88z"/>
		<path fill="#8C42C9" d="M303.6,184.9c-1.6-2-1.3-4.9,0.8-6.5l-6-7.5L247.6,211l6,7.6c0.1-0.1,0.1-0.1,0.2-0.2
			c2-1.6,4.9-1.3,6.5,0.8c1.6,2,1.3,4.9-0.8,6.5c-0.1,0.1-0.2,0.1-0.2,0.2l6,7.6l50.7-40.2l-6-7.5
			C308.1,187.2,305.2,186.9,303.6,184.9z"/>
		<path fill="#8C42C9" d="M43.9,96.9L43,95.4c-1-1.9-2.1-3.8-3.1-5.7l-0.6-1.1l1-0.8c1.3-1,1.7-2.6,1.3-3.3
			c-0.1-0.1-0.2-0.4-0.8-0.4c-0.5,0-1.1,0.2-1.6,0.7l-1.4,1.2l-0.9-1.6c-1-1.8-2-3.6-3.1-5.4l-0.6-1l0.9-0.8
			c13.9-12.7,29.7-21.3,45.5-24.7l1.2-0.3l0.5,1.1c1.1,2.5,2.1,5,3.1,7.6l0.8,1.9l-2,0.2c-0.4,0.1-0.6,0.2-0.7,0.4
			c-0.2,0.4-0.2,1.1,0.1,1.8c0.6,1.5,2.1,2.4,3.1,2.2l1.2-0.3l0.5,1.2c1,2.6,2.1,5.2,3.1,7.8l0.7,1.9l-2,0.2
			c-14.4,1.2-30,7.6-44,17.9L43.9,96.9z M43.1,89.2c0.6,1.1,1.2,2.1,1.8,3.2C58.3,82.8,73.1,76.7,87,75.1c-0.7-1.7-1.3-3.3-2-5
			c-2.1-0.2-4.3-1.9-5.2-4.1c-0.6-1.5-0.6-3.1,0.1-4.4c0.3-0.6,0.7-1,1.2-1.3c-0.7-1.7-1.4-3.3-2.1-5c-14.5,3.4-29,11.4-42,23
			c0.6,1,1.1,2,1.7,3c0.7-0.3,1.3-0.4,2-0.4c1.5,0,2.7,0.7,3.4,2C45.2,84.8,44.7,87.3,43.1,89.2z"/>
		<g>
			<g>
				<g>
					<g>
						<path fill="#FFFFFF" d="M312.9,143.3c-0.7-9.6,6.6-18,16.2-18.7l-2.5-36.1L83.7,105.6l2.5,36.2c0.4,0,0.7-0.1,1.1-0.1
							c9.6-0.7,18,6.6,18.7,16.2c0.7,9.6-6.6,18-16.2,18.7c-0.4,0-0.7,0-1.1,0l2.5,36.2l242.8-17.1l-2.5-36.1
							C321.9,160.2,313.5,153,312.9,143.3z"/>
						<path fill="#106587" d="M91.3,214.3c-0.4,0-0.7-0.1-1-0.4c-0.3-0.3-0.5-0.7-0.5-1.1l-2.5-36.2c0-0.4,0.1-0.9,0.4-1.2
							c0.3-0.3,0.7-0.5,1.1-0.5l0.3,0c0.2,0,0.5,0,0.7,0c8.8-0.6,15.4-8.2,14.8-17c-0.6-8.7-8.2-15.4-17-14.8
							c-0.3,0-0.5,0.1-0.8,0.1l-0.2,0c-0.4,0.1-0.9-0.1-1.2-0.3c-0.3-0.3-0.5-0.7-0.6-1.1l-2.5-36.2c-0.1-0.9,0.6-1.6,1.5-1.7
							L326.4,87c0.4,0,0.8,0.1,1.1,0.4c0.3,0.3,0.5,0.7,0.5,1.1l2.5,36.1c0,0.4-0.1,0.8-0.4,1.1s-0.7,0.5-1.1,0.5
							c-4.2,0.3-8.1,2.2-10.9,5.4c-2.8,3.2-4.2,7.3-3.9,11.6c0.6,8.7,8.2,15.4,17,14.8c0.4,0,0.8,0.1,1.1,0.4
							c0.3,0.3,0.5,0.7,0.5,1.1l2.5,36.1c0.1,0.9-0.6,1.6-1.5,1.7L91.4,214.3C91.3,214.3,91.3,214.3,91.3,214.3z M90.4,178.1l2.3,33
							l239.7-16.9l-2.3-33.1c-9.9-0.1-18.1-7.9-18.8-17.7c-0.4-5.1,1.3-10,4.6-13.8c3-3.4,7-5.7,11.5-6.3l-2.3-33.1L85.4,107.1
							l2.3,33c10.3-0.5,19.2,7.5,19.9,17.7C108.3,168.1,100.7,177.1,90.4,178.1z"/>
					</g>
					<g>
						<path fill="#59B0DC" d="M100.5,203.6c-0.4,0-0.8-0.2-1.1-0.4c-0.3-0.3-0.4-0.7-0.4-1.1c0-0.4,0.2-0.8,0.4-1.1
							c0.6-0.6,1.6-0.6,2.1,0c0.3,0.3,0.4,0.7,0.4,1.1c0,0.4-0.2,0.8-0.4,1.1C101.3,203.4,100.9,203.6,100.5,203.6z"/>
						<path fill="#59B0DC" d="M100.1,197.7c-0.8,0-1.4-0.6-1.5-1.4l0,0c-0.1-0.8,0.5-1.6,1.4-1.6c0.8-0.1,1.6,0.5,1.6,1.4
							c0.1,0.8-0.5,1.6-1.4,1.6C100.2,197.7,100.2,197.7,100.1,197.7z M99.7,191.8c-0.8,0-1.4-0.6-1.5-1.4l0,0
							c-0.1-0.8,0.5-1.6,1.4-1.6c0.8-0.1,1.6,0.5,1.6,1.4c0.1,0.8-0.5,1.6-1.4,1.6C99.8,191.8,99.7,191.8,99.7,191.8z"/>
						<path fill="#59B0DC" d="M99.3,185.9c-0.4,0-0.8-0.2-1.1-0.4c-0.3-0.3-0.4-0.7-0.4-1.1c0-0.4,0.2-0.8,0.4-1.1
							c0.6-0.5,1.6-0.5,2.1,0c0.3,0.3,0.4,0.7,0.4,1.1c0,0.4-0.2,0.8-0.4,1.1C100.1,185.8,99.7,185.9,99.3,185.9z"/>
						<path fill="#59B0DC" d="M103.9,183.4c-0.5,0-1-0.2-1.2-0.7c-0.5-0.7-0.3-1.6,0.4-2.1c0.6-0.5,1.5-0.3,2,0.3
							c0.5,0.6,0.4,1.6-0.2,2.1c0,0-0.1,0.1-0.1,0.1C104.5,183.4,104.2,183.4,103.9,183.4z M107.9,180.1c-0.4,0-0.9-0.2-1.2-0.6
							c-0.5-0.6-0.4-1.5,0.1-2c0.5-0.5,1.4-0.6,2-0.1c0.6,0.5,0.7,1.5,0.2,2.1c-0.1,0.1-0.1,0.2-0.2,0.2
							C108.6,180,108.3,180.1,107.9,180.1z M111.3,176.1c-0.3,0-0.6-0.1-0.8-0.3c-0.7-0.5-0.9-1.4-0.4-2.1c0.1-0.1,0.1-0.2,0.2-0.2
							c0.6-0.6,1.5-0.6,2.1,0c0.5,0.5,0.6,1.4,0.1,2C112.2,175.9,111.8,176.1,111.3,176.1z M113.8,171.5c-0.2,0-0.5-0.1-0.7-0.2
							c-0.7-0.4-1-1.2-0.7-1.9c0.3-0.7,1.1-1.1,1.9-0.8c0.8,0.3,1.2,1.1,0.9,1.9c0,0.1-0.1,0.1-0.1,0.2
							C114.9,171.2,114.4,171.5,113.8,171.5z M115.4,166.5c-0.1,0-0.2,0-0.2,0c-0.8-0.1-1.4-0.9-1.2-1.7c0,0,0-0.1,0-0.1
							c0.2-0.8,1-1.3,1.8-1.1c0.8,0.2,1.3,1,1.1,1.8C116.8,166,116.2,166.5,115.4,166.5z M116.1,161.3L116.1,161.3
							c-0.8,0-1.5-0.7-1.5-1.5c0-0.1,0-0.1,0-0.2c0.1-0.8,0.9-1.4,1.7-1.3c0.8,0.1,1.4,0.8,1.3,1.6
							C117.5,160.7,116.9,161.3,116.1,161.3z M115.7,156.1c-0.7,0-1.4-0.5-1.5-1.2c0,0,0-0.1,0-0.1c-0.1-0.8,0.5-1.6,1.3-1.7
							c0.8-0.1,1.6,0.5,1.7,1.3c0.1,0.8-0.5,1.6-1.3,1.7C115.9,156.1,115.8,156.1,115.7,156.1z M112.1,146.3c-0.5,0-1-0.2-1.2-0.7
							c0-0.1-0.1-0.1-0.1-0.2c-0.4-0.7-0.1-1.6,0.7-2c0.7-0.4,1.6-0.1,2,0.6c0.4,0.7,0.2,1.6-0.5,2
							C112.7,146.2,112.4,146.3,112.1,146.3z M108.9,142.1c-0.4,0-0.8-0.2-1.1-0.5c-0.5-0.6-0.5-1.5,0.1-2.1c0.6-0.6,1.5-0.6,2.1,0
							c0,0,0.1,0.1,0.1,0.1c0.5,0.6,0.4,1.6-0.2,2.1C109.6,142,109.3,142.1,108.9,142.1z M105,138.6c-0.3,0-0.6-0.1-0.9-0.3
							c-0.6-0.5-0.8-1.4-0.4-2c0.5-0.7,1.4-0.9,2.1-0.4c0,0,0.1,0.1,0.1,0.1c0.6,0.5,0.8,1.5,0.2,2.1
							C105.9,138.4,105.5,138.6,105,138.6z M100.6,135.9c-0.2,0-0.3,0-0.5-0.1c-0.1,0-0.3-0.1-0.4-0.2c-0.7-0.5-0.9-1.4-0.4-2.1
							c0.4-0.6,1.2-0.8,1.9-0.5c0.7,0.3,1,1.1,0.8,1.8C101.8,135.5,101.2,135.9,100.6,135.9z"/>
						<path fill="#59B0DC" d="M95.6,134c-0.4,0-0.8-0.2-1.1-0.4c-0.3-0.3-0.4-0.7-0.4-1.1c0-0.4,0.2-0.8,0.4-1.1
							c0.6-0.6,1.6-0.6,2.1,0c0.3,0.3,0.4,0.7,0.4,1.1c0,0.4-0.2,0.8-0.4,1.1C96.4,133.9,96,134,95.6,134z"/>
						<path fill="#59B0DC" d="M95.2,128.2c-0.8,0-1.4-0.6-1.5-1.4l0,0c-0.1-0.8,0.5-1.6,1.4-1.6c0.8-0.1,1.6,0.5,1.6,1.4
							c0.1,0.8-0.5,1.6-1.4,1.6C95.3,128.2,95.3,128.2,95.2,128.2z M94.8,122.3c-0.8,0-1.4-0.6-1.5-1.4l0,0
							c-0.1-0.8,0.5-1.6,1.4-1.6c0.8-0.1,1.6,0.5,1.6,1.4s-0.5,1.6-1.4,1.6C94.9,122.3,94.9,122.3,94.8,122.3z"/>
						<path fill="#59B0DC" d="M94.4,116.4c-0.4,0-0.8-0.2-1.1-0.4c-0.3-0.3-0.4-0.7-0.4-1.1c0-0.4,0.2-0.8,0.4-1.1
							c0.6-0.6,1.6-0.5,2.1,0c0.3,0.3,0.4,0.7,0.4,1.1c0,0.4-0.2,0.8-0.4,1.1C95.2,116.2,94.8,116.4,94.4,116.4z"/>
						<path fill="#59B0DC" d="M99.7,116c-0.8,0-1.5-0.6-1.5-1.4c0-0.8,0.6-1.5,1.4-1.6l0,0c0.8,0,1.5,0.6,1.6,1.4
							C101.2,115.3,100.6,116,99.7,116C99.7,116,99.7,116,99.7,116z M105,115.6c-0.8,0-1.5-0.6-1.5-1.4c0-0.8,0.6-1.5,1.4-1.6l0,0
							c0.8,0,1.5,0.6,1.6,1.4C106.5,114.9,105.9,115.6,105,115.6C105.1,115.6,105,115.6,105,115.6z M110.3,115.3
							c-0.8,0-1.5-0.6-1.5-1.4c0-0.8,0.6-1.5,1.4-1.6l0,0c0.8,0,1.5,0.6,1.6,1.4C111.9,114.5,111.2,115.2,110.3,115.3
							C110.4,115.3,110.3,115.3,110.3,115.3z M115.6,114.9c-0.8,0-1.5-0.6-1.5-1.4c0-0.8,0.6-1.5,1.4-1.6l0,0c0.8,0,1.5,0.6,1.6,1.4
							C117.2,114.2,116.5,114.9,115.6,114.9C115.7,114.9,115.6,114.9,115.6,114.9z M120.9,114.5c-0.8,0-1.5-0.6-1.5-1.4
							c0-0.8,0.6-1.5,1.4-1.6l0,0c0.8,0,1.5,0.6,1.6,1.4C122.5,113.8,121.8,114.5,120.9,114.5C121,114.5,121,114.5,120.9,114.5z
							 M126.2,114.2c-0.8,0-1.5-0.6-1.5-1.4c0-0.8,0.6-1.5,1.4-1.6l0,0c0.8,0,1.5,0.6,1.6,1.4C127.8,113.4,127.1,114.1,126.2,114.2
							C126.3,114.2,126.3,114.2,126.2,114.2z M131.5,113.8c-0.8,0-1.5-0.6-1.5-1.4c0-0.8,0.6-1.5,1.4-1.6l0,0c0.8,0,1.5,0.6,1.6,1.4
							C133.1,113,132.4,113.7,131.5,113.8C131.6,113.8,131.6,113.8,131.5,113.8z M136.8,113.4c-0.8,0-1.4-0.6-1.5-1.4
							c-0.1-0.8,0.5-1.6,1.3-1.6l0,0c0.8-0.1,1.6,0.5,1.6,1.4c0.1,0.8-0.5,1.6-1.4,1.6C136.9,113.4,136.9,113.4,136.8,113.4z
							 M142.1,113c-0.8,0-1.4-0.6-1.5-1.4c-0.1-0.8,0.5-1.6,1.3-1.6l0,0c0.8-0.1,1.6,0.5,1.6,1.4c0.1,0.8-0.5,1.6-1.4,1.6
							C142.2,113,142.2,113,142.1,113z M147.5,112.7c-0.8,0-1.4-0.6-1.5-1.4c-0.1-0.8,0.5-1.6,1.3-1.6l0,0c0.8-0.1,1.6,0.5,1.6,1.3
							c0.1,0.8-0.5,1.6-1.3,1.6C147.6,112.7,147.5,112.7,147.5,112.7z M152.8,112.3c-0.8,0-1.4-0.6-1.5-1.4
							c-0.1-0.8,0.5-1.6,1.3-1.6l0,0c0.8-0.1,1.6,0.5,1.6,1.4c0.1,0.8-0.5,1.6-1.4,1.6C152.9,112.3,152.8,112.3,152.8,112.3z
							 M158.1,111.9c-0.8,0-1.4-0.6-1.5-1.4c-0.1-0.8,0.5-1.6,1.3-1.6l0,0c0.8-0.1,1.6,0.5,1.6,1.4c0.1,0.8-0.5,1.6-1.4,1.6
							C158.2,111.9,158.1,111.9,158.1,111.9z M163.4,111.5c-0.8,0-1.4-0.6-1.5-1.4c-0.1-0.8,0.5-1.6,1.3-1.6l0,0
							c0.8-0.1,1.6,0.5,1.6,1.3c0.1,0.8-0.5,1.6-1.3,1.6C163.5,111.5,163.4,111.5,163.4,111.5z M168.7,111.2c-0.8,0-1.5-0.6-1.5-1.4
							c0-0.8,0.6-1.5,1.4-1.6l0,0c0.8,0,1.5,0.6,1.6,1.4C170.2,110.4,169.6,111.1,168.7,111.2C168.7,111.2,168.7,111.2,168.7,111.2z
							 M174,110.8c-0.8,0-1.5-0.6-1.5-1.4c0-0.8,0.6-1.5,1.4-1.6l0,0c0.8,0,1.5,0.6,1.6,1.4S174.9,110.8,174,110.8
							C174,110.8,174,110.8,174,110.8z M179.3,110.4c-0.8,0-1.5-0.6-1.5-1.4c0-0.8,0.6-1.5,1.4-1.6l0,0c0.8,0,1.5,0.6,1.6,1.4
							C180.8,109.7,180.2,110.4,179.3,110.4C179.3,110.4,179.3,110.4,179.3,110.4z M184.6,110c-0.8,0-1.5-0.6-1.5-1.4
							c0-0.8,0.6-1.5,1.4-1.6l0,0c0.8,0,1.5,0.6,1.6,1.4C186.1,109.3,185.5,110,184.6,110C184.6,110,184.6,110,184.6,110z
							 M189.9,109.7c-0.8,0-1.5-0.6-1.5-1.4c0-0.8,0.6-1.5,1.4-1.6l0,0c0.8,0,1.5,0.6,1.6,1.4C191.4,108.9,190.8,109.6,189.9,109.7
							C190,109.7,189.9,109.7,189.9,109.7z M195.2,109.3c-0.8,0-1.5-0.6-1.5-1.4c0-0.8,0.6-1.5,1.4-1.6l0,0c0.9,0,1.5,0.6,1.6,1.4
							C196.7,108.6,196.1,109.3,195.2,109.3C195.3,109.3,195.2,109.3,195.2,109.3z M200.5,108.9c-0.8,0-1.4-0.6-1.5-1.4
							c-0.1-0.8,0.5-1.6,1.3-1.6l0,0c0.8-0.1,1.6,0.5,1.6,1.3c0.1,0.8-0.5,1.6-1.3,1.6C200.6,108.9,200.6,108.9,200.5,108.9z
							 M205.8,108.6c-0.8,0-1.4-0.6-1.5-1.4c-0.1-0.8,0.5-1.6,1.3-1.6l0,0c0.8-0.1,1.6,0.5,1.6,1.3c0.1,0.8-0.5,1.6-1.3,1.6
							C205.9,108.6,205.9,108.6,205.8,108.6z M211.1,108.2c-0.8,0-1.4-0.6-1.5-1.4c-0.1-0.8,0.5-1.6,1.4-1.6l0,0
							c0.8-0.1,1.6,0.5,1.6,1.4c0.1,0.8-0.5,1.6-1.4,1.6C211.2,108.2,211.2,108.2,211.1,108.2z M216.4,107.8c-0.8,0-1.4-0.6-1.5-1.4
							c-0.1-0.8,0.5-1.6,1.3-1.6l0,0c0.8-0.1,1.6,0.5,1.6,1.3c0.1,0.8-0.5,1.6-1.3,1.6C216.5,107.8,216.5,107.8,216.4,107.8z
							 M221.7,107.4c-0.8,0-1.4-0.6-1.5-1.4c-0.1-0.8,0.5-1.6,1.3-1.6l0,0c0.8-0.1,1.6,0.5,1.6,1.3c0.1,0.8-0.5,1.6-1.3,1.6
							C221.8,107.4,221.8,107.4,221.7,107.4z M227,107.1c-0.8,0-1.4-0.6-1.5-1.4c-0.1-0.8,0.5-1.6,1.4-1.6l0,0
							c0.8-0.1,1.6,0.5,1.6,1.4c0.1,0.8-0.5,1.6-1.4,1.6C227.1,107.1,227.1,107.1,227,107.1z M232.4,106.7c-0.8,0-1.5-0.6-1.5-1.4
							c0-0.8,0.6-1.5,1.4-1.6l0,0c0.8,0,1.5,0.6,1.6,1.4C233.9,105.9,233.3,106.6,232.4,106.7C232.4,106.7,232.4,106.7,232.4,106.7z
							 M237.7,106.3c-0.8,0-1.5-0.6-1.5-1.4c0-0.8,0.6-1.5,1.4-1.6l0,0c0.8,0,1.5,0.6,1.6,1.4C239.2,105.6,238.6,106.3,237.7,106.3
							C237.7,106.3,237.7,106.3,237.7,106.3z M243,105.9c-0.8,0-1.5-0.6-1.5-1.4c0-0.8,0.6-1.5,1.4-1.6l0,0c0.9,0,1.5,0.6,1.6,1.4
							C244.5,105.2,243.9,105.9,243,105.9C243,105.9,243,105.9,243,105.9z M248.3,105.6c-0.8,0-1.5-0.6-1.5-1.4
							c0-0.8,0.6-1.5,1.4-1.6l0,0c0.8,0,1.5,0.6,1.6,1.4C249.8,104.8,249.2,105.5,248.3,105.6C248.3,105.6,248.3,105.6,248.3,105.6z
							 M253.6,105.2c-0.8,0-1.5-0.6-1.5-1.4c0-0.8,0.6-1.5,1.4-1.6l0,0c0.8,0,1.5,0.6,1.6,1.4C255.1,104.4,254.5,105.1,253.6,105.2
							C253.6,105.2,253.6,105.2,253.6,105.2z M258.9,104.8c-0.8,0-1.5-0.6-1.5-1.4c0-0.8,0.6-1.5,1.4-1.6l0,0c0.9,0,1.5,0.6,1.6,1.4
							C260.4,104.1,259.8,104.8,258.9,104.8C258.9,104.8,258.9,104.8,258.9,104.8z M264.2,104.4c-0.8,0-1.5-0.6-1.5-1.4
							c0-0.8,0.6-1.5,1.4-1.6l0,0c0.9,0,1.5,0.6,1.6,1.4C265.7,103.7,265.1,104.4,264.2,104.4C264.2,104.4,264.2,104.4,264.2,104.4z
							 M269.5,104.1c-0.8,0-1.4-0.6-1.5-1.4c-0.1-0.8,0.5-1.6,1.3-1.6l0,0c0.8-0.1,1.6,0.5,1.6,1.3c0.1,0.8-0.5,1.6-1.3,1.6
							C269.6,104.1,269.5,104.1,269.5,104.1z M274.8,103.7c-0.8,0-1.4-0.6-1.5-1.4c-0.1-0.8,0.5-1.6,1.3-1.6l0,0
							c0.8-0.1,1.6,0.5,1.6,1.3c0.1,0.8-0.5,1.6-1.3,1.6C274.9,103.7,274.8,103.7,274.8,103.7z M280.1,103.3c-0.8,0-1.4-0.6-1.5-1.4
							c-0.1-0.8,0.5-1.6,1.4-1.6l0,0c0.8-0.1,1.6,0.5,1.6,1.4c0.1,0.8-0.5,1.6-1.4,1.6C280.2,103.3,280.2,103.3,280.1,103.3z
							 M285.4,103c-0.8,0-1.4-0.6-1.5-1.4c-0.1-0.8,0.5-1.6,1.3-1.6l0,0c0.8-0.1,1.6,0.5,1.6,1.3c0.1,0.8-0.5,1.6-1.3,1.6
							C285.5,102.9,285.5,103,285.4,103z M290.7,102.6c-0.8,0-1.4-0.6-1.5-1.4c-0.1-0.8,0.5-1.6,1.3-1.6l0,0
							c0.8-0.1,1.6,0.5,1.6,1.3c0.1,0.8-0.5,1.6-1.3,1.6C290.8,102.6,290.8,102.6,290.7,102.6z M296,102.2c-0.8,0-1.4-0.6-1.5-1.4
							c-0.1-0.8,0.5-1.6,1.4-1.6l0,0c0.8-0.1,1.6,0.5,1.6,1.4c0.1,0.8-0.5,1.6-1.4,1.6C296.1,102.2,296.1,102.2,296,102.2z
							 M301.3,101.8c-0.8,0-1.5-0.6-1.5-1.4c0-0.8,0.6-1.5,1.4-1.6l0,0c0.8,0,1.5,0.6,1.6,1.4C302.9,101.1,302.2,101.8,301.3,101.8
							C301.4,101.8,301.4,101.8,301.3,101.8z M306.6,101.5c-0.8,0-1.5-0.6-1.5-1.4c0-0.8,0.6-1.5,1.4-1.6l0,0c0.8,0,1.5,0.6,1.6,1.4
							C308.2,100.7,307.5,101.4,306.6,101.5C306.7,101.5,306.7,101.5,306.6,101.5z M311.9,101.1c-0.8,0-1.5-0.6-1.5-1.4
							c0-0.8,0.6-1.5,1.4-1.6l0,0c0.9,0,1.5,0.6,1.6,1.4C313.5,100.3,312.8,101,311.9,101.1C312,101.1,312,101.1,311.9,101.1z"/>
						<path fill="#59B0DC" d="M317.2,100.7c-0.4,0-0.8-0.2-1.1-0.4c-0.3-0.3-0.4-0.7-0.4-1.1c0-0.4,0.2-0.8,0.4-1.1
							c0.6-0.6,1.6-0.6,2.1,0c0.3,0.3,0.4,0.7,0.4,1.1c0,0.4-0.2,0.8-0.4,1.1C318,100.6,317.6,100.7,317.2,100.7z"/>
						<path fill="#59B0DC" d="M318.1,112.7c-0.8,0-1.4-0.6-1.5-1.4c-0.1-0.8,0.5-1.6,1.4-1.6c0.8-0.1,1.6,0.5,1.6,1.4l0,0
							c0.1,0.8-0.5,1.6-1.4,1.6C318.2,112.7,318.1,112.7,318.1,112.7z M317.7,106.7c-0.8,0-1.4-0.6-1.5-1.4
							c-0.1-0.8,0.5-1.6,1.4-1.6c0.8-0.1,1.6,0.5,1.6,1.4l0,0c0.1,0.8-0.5,1.6-1.4,1.6C317.8,106.7,317.7,106.7,317.7,106.7z"/>
						<path fill="#59B0DC" d="M318.5,118.8c-0.4,0-0.8-0.2-1.1-0.4c-0.3-0.3-0.4-0.7-0.4-1.1c0-0.4,0.2-0.8,0.4-1.1
							c0.6-0.6,1.6-0.5,2.1,0c0.3,0.3,0.4,0.7,0.4,1.1c0,0.4-0.2,0.8-0.4,1.1C319.3,118.6,318.9,118.8,318.5,118.8z"/>
						<path fill="#59B0DC" d="M317.4,167.9c-0.2,0-0.3,0-0.5-0.1c-0.1,0-0.3-0.1-0.4-0.2c-0.7-0.5-0.9-1.4-0.4-2.1
							c0.4-0.7,1.3-0.9,2-0.5c0.6,0.3,1,1.1,0.7,1.8C318.6,167.5,318.1,167.9,317.4,167.9z M313.2,165.1c-0.3,0-0.6-0.1-0.9-0.3
							c-0.6-0.5-0.8-1.4-0.3-2c0.5-0.7,1.4-0.9,2.1-0.4c0.1,0.1,0.2,0.1,0.2,0.2c0.6,0.6,0.6,1.5,0,2.1
							C314,165,313.6,165.1,313.2,165.1z M309.5,161.6c-0.4,0-0.9-0.2-1.1-0.5c-0.5-0.6-0.5-1.5,0.1-2c0.6-0.6,1.5-0.6,2.1,0
							c0.1,0.1,0.1,0.2,0.2,0.2c0.5,0.7,0.3,1.6-0.4,2.1C310.1,161.5,309.8,161.6,309.5,161.6z M306.6,157.5c-0.5,0-1.1-0.3-1.3-0.8
							c-0.4-0.7-0.2-1.5,0.5-2c0.7-0.5,1.6-0.3,2.1,0.4c0.1,0.1,0.1,0.2,0.2,0.4c0.3,0.8-0.2,1.6-0.9,1.9
							C306.9,157.5,306.7,157.5,306.6,157.5z M304.4,152.9c-0.6,0-1.2-0.4-1.4-1c-0.3-0.8,0.2-1.6,0.9-1.9c0.8-0.3,1.6,0.2,1.9,0.9
							l0,0c0.3,0.8-0.2,1.6-0.9,1.9C304.8,152.9,304.6,152.9,304.4,152.9z M303.2,148c-0.7,0-1.3-0.5-1.5-1.2
							c-0.1-0.7,0.3-1.5,1-1.7c0.8-0.3,1.6,0.2,1.9,0.9c0.1,0.2,0.1,0.3,0.1,0.5C304.7,147.4,304,148,303.2,148z M302.8,143
							c-0.8,0-1.5-0.7-1.5-1.5s0.7-1.5,1.5-1.5s1.5,0.7,1.5,1.5v0C304.3,142.3,303.6,143,302.8,143z M303.4,138
							c-0.8,0-1.5-0.7-1.5-1.5c0-0.2,0-0.3,0.1-0.5c0.3-0.8,1.1-1.2,1.9-0.9c0.7,0.2,1.1,1,1,1.7C304.7,137.4,304.1,138,303.4,138z
							 M304.9,133.1c-0.3,0-0.6-0.1-0.8-0.3c-0.6-0.4-0.8-1.2-0.5-1.9c0.3-0.7,1.1-1.1,1.8-0.8c0.8,0.3,1.2,1.1,0.9,1.9
							c0,0.1-0.1,0.3-0.2,0.4C305.8,132.9,305.4,133.1,304.9,133.1z M307.2,128.7c-0.2,0-0.5-0.1-0.7-0.2c-0.7-0.4-1-1.3-0.7-2
							c0-0.1,0.1-0.1,0.1-0.2c0.5-0.7,1.4-0.9,2.1-0.4c0.7,0.4,0.9,1.4,0.4,2C308.2,128.4,307.7,128.7,307.2,128.7z M310.4,124.7
							c-0.5,0-1-0.2-1.2-0.7c-0.4-0.6-0.3-1.4,0.2-1.9c0.5-0.5,1.4-0.6,2-0.1c0.6,0.5,0.8,1.5,0.2,2.1c-0.1,0.1-0.2,0.2-0.3,0.3
							C310.9,124.6,310.7,124.7,310.4,124.7z M314.2,121.4c-0.4,0-0.8-0.1-1.1-0.4c-0.6-0.6-0.6-1.5,0-2.1c0.1-0.1,0.2-0.1,0.2-0.2
							c0.7-0.5,1.6-0.3,2.1,0.4c0.4,0.7,0.3,1.5-0.3,2C314.8,121.2,314.5,121.4,314.2,121.4z"/>
						<path fill="#59B0DC" d="M322.1,169.8c-0.4,0-0.8-0.2-1.1-0.4c-0.3-0.3-0.4-0.7-0.4-1.1c0-0.4,0.2-0.8,0.4-1.1
							c0.6-0.6,1.6-0.6,2.1,0c0.3,0.3,0.4,0.7,0.4,1.1c0,0.4-0.2,0.8-0.4,1.1C322.9,169.7,322.5,169.8,322.1,169.8z"/>
						<path fill="#59B0DC" d="M323,181.9c-0.8,0-1.4-0.6-1.5-1.4c-0.1-0.8,0.5-1.6,1.4-1.6c0.8-0.1,1.6,0.5,1.6,1.4l0,0
							c0.1,0.8-0.5,1.6-1.4,1.6C323,181.9,323,181.9,323,181.9z M322.5,175.9c-0.8,0-1.4-0.6-1.5-1.4c-0.1-0.8,0.5-1.6,1.4-1.6
							c0.8-0.1,1.6,0.5,1.6,1.4l0,0c0.1,0.8-0.5,1.6-1.4,1.6C322.6,175.9,322.6,175.9,322.5,175.9z"/>
						<path fill="#59B0DC" d="M323.4,187.9c-0.4,0-0.8-0.2-1.1-0.4c-0.3-0.3-0.4-0.7-0.4-1.1c0-0.4,0.2-0.8,0.4-1.1
							c0.6-0.6,1.6-0.6,2.1,0c0.3,0.3,0.4,0.7,0.4,1.1c0,0.4-0.2,0.8-0.4,1.1C324.2,187.7,323.8,187.9,323.4,187.9z"/>
						<path fill="#59B0DC" d="M105.8,203.2c-0.8,0-1.4-0.6-1.5-1.4c-0.1-0.8,0.5-1.6,1.3-1.6c0.8-0.1,1.6,0.5,1.6,1.3
							c0.1,0.8-0.5,1.6-1.3,1.6l0,0C105.9,203.2,105.9,203.2,105.8,203.2z M111.1,202.8c-0.8,0-1.4-0.6-1.5-1.4
							c-0.1-0.8,0.5-1.6,1.4-1.6c0.8-0.1,1.6,0.5,1.6,1.4c0.1,0.8-0.5,1.6-1.3,1.6l0,0C111.2,202.8,111.2,202.8,111.1,202.8z
							 M116.5,202.5c-0.8,0-1.4-0.6-1.5-1.4c-0.1-0.8,0.5-1.6,1.4-1.6c0.8-0.1,1.6,0.5,1.6,1.4c0.1,0.8-0.5,1.6-1.3,1.6l0,0
							C116.5,202.5,116.5,202.5,116.5,202.5z M121.8,202.1c-0.8,0-1.4-0.6-1.5-1.4c-0.1-0.8,0.5-1.6,1.3-1.6
							c0.8-0.1,1.6,0.5,1.6,1.3c0.1,0.8-0.5,1.6-1.3,1.6l0,0C121.9,202.1,121.8,202.1,121.8,202.1z M127.1,201.7L127.1,201.7
							c-0.8,0-1.5-0.7-1.5-1.5s0.7-1.5,1.5-1.5s1.5,0.7,1.5,1.5S127.9,201.7,127.1,201.7z M132.4,201.3c-0.8,0-1.4-0.6-1.5-1.4
							c-0.1-0.8,0.5-1.6,1.3-1.6c0.8-0.1,1.6,0.5,1.6,1.3s-0.5,1.6-1.3,1.6l0,0C132.5,201.3,132.4,201.3,132.4,201.3z M137.7,201
							L137.7,201c-0.8,0-1.5-0.7-1.5-1.5s0.7-1.5,1.5-1.5s1.5,0.7,1.5,1.5S138.5,201,137.7,201z M143,200.6c-0.8,0-1.4-0.6-1.5-1.4
							c-0.1-0.8,0.5-1.6,1.4-1.6c0.8-0.1,1.6,0.5,1.6,1.4c0.1,0.8-0.5,1.6-1.3,1.6l0,0C143.1,200.6,143,200.6,143,200.6z
							 M148.3,200.2L148.3,200.2c-0.8,0-1.5-0.7-1.5-1.5s0.7-1.5,1.5-1.5s1.5,0.7,1.5,1.5S149.1,200.2,148.3,200.2z M153.6,199.9
							c-0.8,0-1.4-0.6-1.5-1.4c-0.1-0.8,0.5-1.6,1.4-1.6c0.8-0.1,1.6,0.5,1.6,1.4c0.1,0.8-0.5,1.6-1.3,1.6l0,0
							C153.7,199.9,153.6,199.9,153.6,199.9z M158.9,199.5c-0.8,0-1.4-0.6-1.5-1.4c-0.1-0.8,0.5-1.6,1.4-1.6
							c0.8-0.1,1.6,0.5,1.6,1.4c0.1,0.8-0.5,1.6-1.3,1.6l0,0C159,199.5,158.9,199.5,158.9,199.5z M164.2,199.1
							c-0.8,0-1.4-0.6-1.5-1.4c-0.1-0.8,0.5-1.6,1.3-1.6c0.8-0.1,1.6,0.5,1.6,1.3c0.1,0.8-0.5,1.6-1.3,1.6l0,0
							C164.3,199.1,164.3,199.1,164.2,199.1z M169.5,198.7c-0.8,0-1.4-0.6-1.5-1.4c-0.1-0.8,0.5-1.6,1.4-1.6
							c0.8-0.1,1.6,0.5,1.6,1.4c0.1,0.8-0.5,1.6-1.3,1.6l0,0C169.6,198.7,169.6,198.7,169.5,198.7z M174.8,198.4
							c-0.8,0-1.4-0.6-1.5-1.4c-0.1-0.8,0.5-1.6,1.4-1.6c0.8-0.1,1.6,0.5,1.6,1.4c0.1,0.8-0.5,1.6-1.3,1.6l0,0
							C174.9,198.4,174.9,198.4,174.8,198.4z M180.1,198c-0.8,0-1.4-0.6-1.5-1.4c-0.1-0.8,0.5-1.6,1.3-1.6c0.8-0.1,1.6,0.5,1.6,1.3
							s-0.5,1.6-1.3,1.6l0,0C180.2,198,180.2,198,180.1,198z M185.4,197.6c-0.8,0-1.4-0.6-1.5-1.4c-0.1-0.8,0.5-1.6,1.4-1.6
							c0.8-0.1,1.6,0.5,1.6,1.4c0.1,0.8-0.5,1.6-1.3,1.6l0,0C185.5,197.6,185.5,197.6,185.4,197.6z M190.7,197.2
							c-0.8,0-1.4-0.6-1.5-1.4c-0.1-0.8,0.5-1.6,1.4-1.6c0.8-0.1,1.6,0.5,1.6,1.4c0.1,0.8-0.5,1.6-1.3,1.6l0,0
							C190.8,197.2,190.8,197.2,190.7,197.2z M196.1,196.9L196.1,196.9c-0.8,0-1.5-0.7-1.5-1.5s0.7-1.5,1.5-1.5s1.5,0.7,1.5,1.5
							S196.9,196.9,196.1,196.9z M201.3,196.5c-0.8,0-1.4-0.6-1.5-1.4c-0.1-0.8,0.5-1.6,1.3-1.6c0.8-0.1,1.6,0.5,1.6,1.3
							c0.1,0.8-0.5,1.6-1.3,1.6l0,0C201.4,196.5,201.4,196.5,201.3,196.5z M206.7,196.1L206.7,196.1c-0.8,0-1.5-0.7-1.5-1.5
							s0.7-1.5,1.5-1.5s1.5,0.7,1.5,1.5S207.5,196.1,206.7,196.1z M212,195.7c-0.8,0-1.4-0.6-1.5-1.4c-0.1-0.8,0.5-1.6,1.4-1.6
							c0.8-0.1,1.6,0.5,1.6,1.4c0.1,0.8-0.5,1.6-1.4,1.6l0,0C212,195.7,212,195.7,212,195.7z M217.3,195.4L217.3,195.4
							c-0.8,0-1.5-0.7-1.5-1.5s0.7-1.5,1.5-1.5s1.5,0.7,1.5,1.5S218.1,195.4,217.3,195.4z M222.6,195c-0.8,0-1.4-0.6-1.5-1.4
							c-0.1-0.8,0.5-1.6,1.3-1.6c0.8-0.1,1.6,0.5,1.6,1.3c0.1,0.8-0.5,1.6-1.3,1.6l0,0C222.7,195,222.6,195,222.6,195z M227.9,194.6
							c-0.8,0-1.4-0.6-1.5-1.4c-0.1-0.8,0.5-1.6,1.4-1.6c0.8-0.1,1.6,0.5,1.6,1.4c0.1,0.8-0.5,1.6-1.4,1.6l0,0
							C228,194.6,227.9,194.6,227.9,194.6z M233.2,194.3c-0.8,0-1.4-0.6-1.5-1.4c-0.1-0.8,0.5-1.6,1.3-1.6c0.8-0.1,1.6,0.5,1.6,1.3
							c0.1,0.8-0.5,1.6-1.3,1.6l0,0C233.3,194.2,233.2,194.3,233.2,194.3z M238.5,193.9c-0.8,0-1.4-0.6-1.5-1.4
							c-0.1-0.8,0.5-1.6,1.3-1.6c0.8-0.1,1.6,0.5,1.6,1.3c0.1,0.8-0.5,1.6-1.3,1.6l0,0C238.6,193.9,238.5,193.9,238.5,193.9z
							 M243.8,193.5c-0.8,0-1.4-0.6-1.5-1.4c-0.1-0.8,0.5-1.6,1.4-1.6c0.8-0.1,1.6,0.5,1.6,1.4c0.1,0.8-0.5,1.6-1.4,1.6l0,0
							C243.9,193.5,243.8,193.5,243.8,193.5z M249.1,193.1c-0.8,0-1.4-0.6-1.5-1.4c-0.1-0.8,0.5-1.6,1.4-1.6
							c0.8-0.1,1.6,0.5,1.6,1.4c0.1,0.8-0.5,1.6-1.4,1.6l0,0C249.2,193.1,249.1,193.1,249.1,193.1z M254.4,192.8L254.4,192.8
							c-0.8,0-1.5-0.7-1.5-1.5s0.7-1.5,1.5-1.5s1.5,0.7,1.5,1.5S255.2,192.8,254.4,192.8z M259.7,192.4c-0.8,0-1.4-0.6-1.5-1.4
							c-0.1-0.8,0.5-1.6,1.3-1.6c0.8-0.1,1.6,0.5,1.6,1.3c0.1,0.8-0.5,1.6-1.3,1.6l0,0C259.8,192.4,259.8,192.4,259.7,192.4z
							 M265,192L265,192c-0.8,0-1.5-0.7-1.5-1.5s0.7-1.5,1.5-1.5s1.5,0.7,1.5,1.5S265.9,192,265,192z M270.3,191.6
							c-0.8,0-1.4-0.6-1.5-1.4c-0.1-0.8,0.5-1.6,1.3-1.6c0.8-0.1,1.6,0.5,1.6,1.3c0.1,0.8-0.5,1.6-1.3,1.6l0,0
							C270.4,191.6,270.4,191.6,270.3,191.6z M275.6,191.3L275.6,191.3c-0.8,0-1.5-0.7-1.5-1.5s0.7-1.5,1.5-1.5s1.5,0.7,1.5,1.5
							S276.5,191.3,275.6,191.3z M280.9,190.9c-0.8,0-1.4-0.6-1.5-1.4c-0.1-0.8,0.5-1.6,1.4-1.6c0.8-0.1,1.6,0.5,1.6,1.4
							c0.1,0.8-0.5,1.6-1.4,1.6l0,0C281,190.9,281,190.9,280.9,190.9z M286.3,190.5L286.3,190.5c-0.8,0-1.5-0.7-1.5-1.5
							s0.7-1.5,1.5-1.5s1.5,0.7,1.5,1.5S287.1,190.5,286.3,190.5z M291.5,190.1c-0.8,0-1.4-0.6-1.5-1.4c-0.1-0.8,0.5-1.6,1.3-1.6
							c0.8-0.1,1.6,0.5,1.6,1.3c0.1,0.8-0.5,1.6-1.3,1.6l0,0C291.6,190.1,291.6,190.1,291.5,190.1z M296.9,189.8
							c-0.8,0-1.4-0.6-1.5-1.4c-0.1-0.8,0.5-1.6,1.4-1.6c0.8-0.1,1.6,0.5,1.6,1.4c0.1,0.8-0.5,1.6-1.4,1.6l0,0
							C296.9,189.8,296.9,189.8,296.9,189.8z M302.2,189.4c-0.8,0-1.4-0.6-1.5-1.4c-0.1-0.8,0.5-1.6,1.3-1.6
							c0.8-0.1,1.6,0.5,1.6,1.3c0.1,0.8-0.5,1.6-1.3,1.6l0,0C302.3,189.4,302.2,189.4,302.2,189.4z M307.5,189
							c-0.8,0-1.4-0.6-1.5-1.4c-0.1-0.8,0.5-1.6,1.3-1.6c0.8-0.1,1.6,0.5,1.6,1.3c0.1,0.8-0.5,1.6-1.3,1.6l0,0
							C307.6,189,307.5,189,307.5,189z M312.8,188.6c-0.8,0-1.4-0.6-1.5-1.4c-0.1-0.8,0.5-1.6,1.4-1.6c0.8-0.1,1.6,0.5,1.6,1.4
							c0.1,0.8-0.5,1.6-1.4,1.6l0,0C312.9,188.6,312.8,188.6,312.8,188.6z M318.1,188.3c-0.8,0-1.4-0.6-1.5-1.4
							c-0.1-0.8,0.5-1.6,1.3-1.6c0.8-0.1,1.6,0.5,1.6,1.3c0.1,0.8-0.5,1.6-1.3,1.6l0,0C318.2,188.3,318.1,188.3,318.1,188.3z"/>
					</g>
				</g>
			</g>
			<g>
				<g>
					<path fill="#106587" d="M129.3,160.1l-3.9,0.3c-1.3,0.1-2.4-0.8-2.5-2.1c-0.1-1.3,0.8-2.4,2.1-2.5l3.9-0.3l-0.3-3.8
						c-0.1-1.3,0.9-2.4,2.2-2.6c1.3-0.1,2.4,0.9,2.6,2.2l0.3,3.8l3.9-0.3c1.3-0.1,2.4,0.8,2.5,2.1c0.1,1.3-0.8,2.4-2.1,2.5l-3.9,0.3
						l0.3,3.8c0.1,1.3-0.9,2.4-2.2,2.6c-1.3,0.1-2.4-0.9-2.6-2.2L129.3,160.1z"/>
					<path fill="#106587" d="M149.5,149.4l-1.8,0.6c-0.3,0.1-0.6,0.2-0.9,0.2c-1.2,0.1-2.3-0.8-2.4-2c-0.1-1,0.5-2,1.5-2.3l3.2-1.2
						c0.9-0.3,1.7-0.6,2.4-0.6l0.1,0c1.4-0.1,2.6,0.9,2.7,2.3l1.5,18.8c0.1,1.4-0.9,2.6-2.3,2.7s-2.6-0.9-2.7-2.3L149.5,149.4z"/>
					<path fill="#106587" d="M164,165c-0.6-0.4-1.1-1-1.2-1.9c-0.1-1.3,0.9-2.6,2.2-2.7c0.6,0,1,0.1,1.4,0.4
						c1.5,0.9,2.9,1.3,4.5,1.1c2.2-0.2,3.7-1.5,3.5-3.5l0-0.1c-0.2-2-2-3-4.4-2.8c-2,0.2-2.8,0.8-3.5,0.9c-0.7,0.1-1.3-0.2-2.4-0.8
						c-0.7-0.4-1.1-1.1-1.1-2l-0.2-7.9c0-1.2,0.9-2.3,2.1-2.4l10.1-0.8c1.2-0.1,2.3,0.8,2.4,2.1c0.1,1.2-0.9,2.3-2.1,2.4l-7.9,0.6
						l0.1,4c0.9-0.3,1.7-0.5,3-0.6c4.6-0.4,8.3,1.5,8.8,6.8l0,0.1c0.4,4.9-2.9,8.3-8,8.8C168.2,166.9,165.9,166.2,164,165z"/>
					<path fill="#106587" d="M184.9,153.5L184.9,153.5c-0.5-6.8,3.2-12.4,9.4-12.9c6.2-0.5,10.7,4.4,11.3,11.1l0,0.1
						c0.5,6.8-3.2,12.4-9.4,12.9C190,165.1,185.5,160.2,184.9,153.5z M200.3,152.2L200.3,152.2c-0.3-4.3-2.7-7.3-5.7-7.1
						c-3.1,0.2-4.8,3.5-4.5,7.8l0,0.1c0.3,4.3,2.6,7.3,5.7,7S200.7,156.4,200.3,152.2z"/>
					<path fill="#106587" d="M214,157.2c1.7-0.1,3,1,3.1,2.6l0,0.1c0.1,1.6-1,2.9-2.7,3.1c-1.7,0.1-3-1-3.1-2.6l0-0.1
						C211.2,158.7,212.3,157.4,214,157.2z"/>
					<path fill="#106587" d="M221.4,150.5L221.4,150.5c-0.5-6.8,3.2-12.4,9.4-12.9c6.2-0.5,10.7,4.4,11.3,11.1l0,0.1
						c0.5,6.8-3.2,12.4-9.4,12.9C226.4,162.2,221.9,157.3,221.4,150.5z M236.8,149.3L236.8,149.3c-0.3-4.3-2.7-7.3-5.7-7.1
						c-3.1,0.2-4.8,3.5-4.5,7.8l0,0.1c0.3,4.3,2.6,7.3,5.7,7C235.4,156.8,237.1,153.5,236.8,149.3z"/>
					<path fill="#106587" d="M247.6,148.4L247.6,148.4c-0.5-6.8,3.2-12.4,9.4-12.9c6.2-0.5,10.7,4.4,11.3,11.1l0,0.1
						c0.5,6.8-3.2,12.4-9.4,12.9C252.7,160.1,248.2,155.2,247.6,148.4z M263.1,147.2L263.1,147.2c-0.3-4.3-2.7-7.3-5.7-7.1
						c-3.1,0.2-4.8,3.5-4.5,7.8l0,0.1c0.3,4.3,2.6,7.3,5.7,7C261.7,154.7,263.4,151.4,263.1,147.2z"/>
					<path fill="#106587" d="M273.9,146.3L273.9,146.3c-0.5-6.8,3.2-12.4,9.4-12.9c6.2-0.5,10.7,4.4,11.3,11.1l0,0.1
						c0.5,6.8-3.2,12.4-9.4,12.9S274.5,153,273.9,146.3z M289.3,145L289.3,145c-0.3-4.3-2.7-7.3-5.7-7.1c-3.1,0.2-4.8,3.5-4.5,7.8
						l0,0.1c0.3,4.3,2.6,7.3,5.7,7C288,152.6,289.7,149.3,289.3,145z"/>
				</g>
			</g>
		</g>
		<path fill="#E45F58" d="M165.2,88.5c-1.6-2-1.3-4.9,0.8-6.5l-6-7.5l-50.7,40.2l6,7.6c0.1-0.1,0.1-0.1,0.2-0.2
			c2-1.6,4.9-1.3,6.5,0.8c1.6,2,1.3,4.9-0.8,6.5c-0.1,0.1-0.2,0.1-0.2,0.2l6,7.6l50.7-40.2l-6-7.5C169.7,90.9,166.8,90.6,165.2,88.5
			z"/>
		<path fill="#E45F58" d="M295.7,75.8l-67.4-7.2l1.4-12.7l1.8,0.3c1.7,0.2,3.3-1.1,3.5-2.8c0.1-0.8-0.2-1.7-0.7-2.3
			c-0.5-0.7-1.3-1.1-2.1-1.2l-1.7-0.1l0.1-1.6l1.2-11.1l67.4,7.2L297.8,57l-1.5-0.2c-1.8-0.2-3.3,1.1-3.5,2.8
			c-0.2,1.7,1.1,3.3,2.8,3.5l1.5,0.2L295.7,75.8z M231.7,66l61.4,6.6l0.7-6.8c-2.6-1-4.3-3.6-4-6.4c0.3-2.8,2.5-5.1,5.3-5.4l0.7-6.8
			l-61.4-6.6l-0.7,6.7c1.2,0.4,2.2,1,2.9,2c1,1.3,1.5,2.9,1.3,4.5c-0.3,2.9-2.7,5.2-5.6,5.5L231.7,66z"/>
		<path fill="#2F9ED4" d="M121.6,271.1l-1.3-0.2c-21-3.7-41.8-11.3-61.9-22.7l-1.1-0.6l0.4-1.2c1-2.8,2-5.6,3.1-8.5l0.6-1.7l1.8,1.1
			c0.5,0.3,1.1,0.4,1.6,0.4c1,0,1.8-0.5,2.1-1.5c0.6-1.6-0.4-3.6-2.2-4.6l-1.4-0.6l0.4-1.3c1-2.9,2.1-5.7,3.1-8.6l0.6-1.6l1.5,0.8
			c20,10.1,40.5,16.4,60.9,18.9l1.8,0.2l-0.5,1.7c-1,3.3-2,6.5-3.1,9.8l-0.4,1.2l-1.3-0.2c-1.7-0.2-3.6,1.2-4.2,3
			c-0.3,0.9-0.2,1.8,0.2,2.5c0.3,0.5,0.9,0.9,1.5,1l1.7,0.3l-0.5,1.7c-1,3.2-2,6.5-3.1,9.7L121.6,271.1z M61,246.2
			c19,10.6,38.7,17.9,58.5,21.5c0.7-2.3,1.5-4.7,2.2-7c-0.8-0.4-1.5-1-2-1.8c-0.9-1.4-1.1-3.2-0.5-5c0.9-2.8,3.4-4.8,6.2-5.1
			c0.7-2.3,1.5-4.7,2.2-7c-19.7-2.6-39.3-8.7-58.6-18.2c-0.7,1.9-1.4,3.9-2.1,5.8c2.5,1.8,3.7,5,2.8,7.7c-0.8,2.1-2.7,3.5-5,3.5
			c-0.6,0-1.2-0.1-1.7-0.3C62.4,242.4,61.7,244.3,61,246.2z"/>
		<g>
			<path fill="#59B0DC" d="M23,107.3c-0.4,0-0.8-0.2-1.1-0.4c-0.3-0.3-0.4-0.7-0.4-1.1c0-0.4,0.2-0.8,0.4-1.1c0.6-0.6,1.6-0.6,2.1,0
				c0.3,0.3,0.4,0.7,0.4,1.1c0,0.4-0.2,0.8-0.4,1.1C23.8,107.1,23.4,107.3,23,107.3z"/>
			<path fill="#59B0DC" d="M63,197.3c-0.2,0-0.4,0-0.6-0.1c-0.7-0.3-1.1-1.1-0.8-1.9c0.3-0.8,1.1-1.2,1.9-0.9c0.1,0,0.2,0.1,0.3,0.1
				c0.7,0.4,1,1.3,0.6,2C64,197.1,63.5,197.3,63,197.3z M58.2,195.3c-0.2,0-0.4,0-0.6-0.1c-0.7-0.3-1.1-1.1-0.8-1.9
				c0.3-0.8,1.1-1.2,1.9-0.9c0.1,0,0.2,0.1,0.3,0.1c0.7,0.4,1,1.3,0.6,2C59.2,195.1,58.7,195.3,58.2,195.3z M53.4,193.1
				c-0.2,0-0.3,0-0.5-0.1c-0.1,0-0.3-0.1-0.4-0.2c-0.7-0.5-0.9-1.4-0.4-2.1c0.4-0.7,1.3-0.9,2-0.5c0.6,0.3,1,1.1,0.7,1.8
				C54.7,192.7,54.1,193.1,53.4,193.1z M48.9,190.5c-0.2,0-0.4,0-0.6-0.1c-0.1,0-0.2-0.1-0.3-0.1c-0.7-0.5-0.9-1.4-0.4-2.1
				c0.4-0.7,1.3-0.9,2-0.5c0.6,0.4,0.9,1.2,0.7,1.9C50,190.1,49.5,190.5,48.9,190.5z M44.5,187.6c-0.3,0-0.6-0.1-0.9-0.3
				c-0.7-0.5-0.8-1.4-0.4-2.1c0.5-0.7,1.4-0.9,2.1-0.4c0,0,0.1,0.1,0.1,0.1c0.6,0.5,0.8,1.5,0.2,2.1C45.4,187.4,45,187.6,44.5,187.6
				z M40.4,184.4c-0.4,0-0.7-0.1-1-0.4c-0.6-0.5-0.7-1.4-0.2-2.1c0.5-0.6,1.5-0.8,2.1-0.2c0,0,0.1,0.1,0.1,0.1
				c0.6,0.6,0.6,1.5,0,2.1C41.2,184.2,40.8,184.4,40.4,184.4z M36.6,180.8c-0.4,0-0.8-0.2-1.1-0.5c-0.5-0.5-0.6-1.4-0.1-2
				c0.5-0.6,1.5-0.8,2.1-0.2c0.1,0.1,0.2,0.2,0.3,0.3c0.5,0.7,0.3,1.6-0.4,2.1C37.2,180.8,36.9,180.8,36.6,180.8z M33.1,177
				c-0.3,0-0.7-0.1-0.9-0.3c-0.1-0.1-0.2-0.2-0.3-0.3c-0.5-0.7-0.3-1.6,0.4-2.1c0.6-0.4,1.5-0.3,2,0.3c0.5,0.5,0.5,1.3,0,1.9
				C33.9,176.8,33.5,177,33.1,177z M29.9,172.8c-0.4,0-0.8-0.1-1.1-0.4c-0.1-0.1-0.1-0.2-0.2-0.2c-0.5-0.7-0.3-1.6,0.4-2.1
				c0.7-0.4,1.5-0.3,2,0.3c0.5,0.6,0.4,1.4-0.1,2C30.7,172.6,30.3,172.8,29.9,172.8z M27.2,168.3c-0.5,0-1-0.2-1.2-0.7
				c0-0.1-0.1-0.1-0.1-0.2c-0.4-0.7-0.1-1.6,0.7-2c0.7-0.4,1.6-0.1,2,0.6c0.4,0.7,0.2,1.5-0.5,2C27.7,168.3,27.4,168.3,27.2,168.3z
				 M24.8,163.7c-0.6,0-1.1-0.3-1.4-0.9c-0.3-0.7,0-1.6,0.7-1.9c0.7-0.4,1.6-0.1,2,0.7c0,0.1,0.1,0.1,0.1,0.2
				c0.3,0.8-0.2,1.6-0.9,1.9C25.1,163.6,25,163.7,24.8,163.7z M21.3,153.8c-0.7,0-1.3-0.5-1.5-1.2c-0.2-0.8,0.2-1.5,1-1.8
				c0.8-0.3,1.6,0.2,1.9,0.9c0,0.1,0.1,0.2,0.1,0.3c0.1,0.8-0.5,1.6-1.3,1.7C21.5,153.8,21.4,153.8,21.3,153.8z M20.2,148.7
				c-0.7,0-1.3-0.5-1.5-1.1c0,0,0-0.1,0-0.1c-0.1-0.8,0.4-1.6,1.2-1.7c0.8-0.1,1.6,0.4,1.7,1.2c0.2,0.8-0.3,1.6-1.1,1.8
				C20.4,148.7,20.3,148.7,20.2,148.7z M19.4,143.5c-0.8,0-1.4-0.6-1.5-1.4c-0.1-0.8,0.5-1.5,1.2-1.6c0.8-0.1,1.6,0.4,1.7,1.2
				c0,0.1,0,0.2,0,0.3C20.9,142.8,20.3,143.5,19.4,143.5z M19,138.3c-0.7,0-1.4-0.6-1.5-1.3c0-0.1,0-0.1,0-0.2
				c0-0.8,0.7-1.5,1.5-1.5c0.8,0,1.5,0.6,1.5,1.4c0,0.8-0.5,1.5-1.3,1.6C19.2,138.3,19.1,138.3,19,138.3z M19,133
				c-0.8,0-1.5-0.7-1.5-1.5s0.7-1.5,1.5-1.5s1.5,0.7,1.5,1.5v0C20.5,132.4,19.8,133,19,133z M19.2,127.8c-0.1,0-0.1,0-0.2,0
				c-0.8-0.1-1.4-0.8-1.3-1.6c0-0.8,0.7-1.4,1.5-1.4l0,0c0.8,0,1.5,0.7,1.5,1.5c0,0.1,0,0.1,0,0.2C20.6,127.3,19.9,127.8,19.2,127.8
				z M19.7,122.6c-0.1,0-0.2,0-0.2,0c-0.8-0.1-1.4-0.9-1.2-1.7c0.1-0.8,0.9-1.4,1.7-1.2c0.8,0.1,1.4,0.9,1.3,1.7c0,0,0,0,0,0
				C21.1,122.1,20.4,122.6,19.7,122.6z M20.5,117.4c-0.2,0-0.3,0-0.5-0.1c-0.7-0.2-1.2-1-1-1.7c0.2-0.8,0.9-1.3,1.7-1.2
				c0.8,0.1,1.4,0.9,1.3,1.7c0,0.1,0,0.2-0.1,0.3C21.7,117,21.1,117.4,20.5,117.4z M21.6,112.3c-0.1,0-0.2,0-0.2,0
				c-0.8-0.1-1.4-0.9-1.2-1.7c0-0.1,0-0.1,0-0.2c0.2-0.8,1.1-1.3,1.9-1c0.8,0.2,1.2,1,1,1.8C22.9,111.8,22.3,112.3,21.6,112.3z"/>
			<path fill="#59B0DC" d="M68,199.1c-0.4,0-0.8-0.2-1.1-0.4c-0.3-0.3-0.4-0.7-0.4-1.1c0-0.4,0.2-0.8,0.4-1.1c0.6-0.6,1.6-0.5,2.1,0
				c0.3,0.3,0.4,0.7,0.4,1.1c0,0.4-0.2,0.8-0.4,1.1C68.8,198.9,68.4,199.1,68,199.1z"/>
		</g>
		<g>
			<path fill="#E45F58" d="M368,171.7c-0.4,0-0.8-0.2-1.1-0.4c-0.3-0.3-0.4-0.7-0.4-1.1c0-0.4,0.2-0.8,0.4-1.1
				c0.6-0.6,1.6-0.6,2.1,0c0.3,0.3,0.4,0.7,0.4,1.1c0,0.4-0.2,0.8-0.4,1.1C368.8,171.6,368.4,171.7,368,171.7z"/>
			<path fill="#E45F58" d="M278.1,286.7L278.1,286.7c-0.8,0-1.5-0.7-1.5-1.5s0.7-1.5,1.5-1.5s1.5,0.7,1.5,1.5
				S278.9,286.7,278.1,286.7z M283.4,286.7L283.4,286.7c-0.8,0-1.5-0.7-1.5-1.5s0.7-1.5,1.5-1.5s1.5,0.7,1.5,1.5
				S284.2,286.7,283.4,286.7z M272.8,286.5c-0.1,0-0.3,0-0.4,0c-0.8-0.2-1.3-1-1.1-1.8c0.2-0.7,0.9-1.2,1.6-1.1
				c0.8,0.1,1.3,0.7,1.3,1.5C274.3,285.8,273.6,286.5,272.8,286.5z M288.6,286.4c-0.7,0-1.3-0.5-1.5-1.1c-0.2-0.8,0.3-1.6,1.1-1.8
				c0.9-0.2,1.9,0.5,1.9,1.5c0,0.8-0.6,1.4-1.3,1.5C288.8,286.4,288.7,286.4,288.6,286.4z M267.5,285.9c-0.1,0-0.3,0-0.4,0
				c-0.8-0.2-1.3-1-1.1-1.8c0.2-0.7,0.9-1.2,1.6-1.1c0.8,0.1,1.3,0.7,1.3,1.5C269,285.2,268.3,285.9,267.5,285.9z M293.9,285.7
				c-0.8,0-1.5-0.7-1.5-1.5c0-0.7,0.5-1.3,1.2-1.5c0.7-0.1,1.5,0.3,1.7,1c0.3,0.8-0.2,1.6-0.9,1.9
				C294.2,285.7,294.1,285.7,293.9,285.7z M262.3,285c-0.1,0-0.2,0-0.3,0c-0.7-0.1-1.2-0.7-1.2-1.5c0-0.8,0.7-1.5,1.5-1.5
				c0.2,0,0.3,0,0.5,0.1c0.8,0.3,1.2,1.1,0.9,1.9C263.5,284.6,262.9,285,262.3,285z M299.1,284.8c-0.8,0-1.5-0.7-1.5-1.5
				c0-0.7,0.5-1.3,1.2-1.5c0.7-0.1,1.5,0.3,1.7,1c0.3,0.8-0.2,1.6-0.9,1.9C299.4,284.7,299.3,284.8,299.1,284.8z M257.1,283.8
				c-0.1,0-0.3,0-0.4-0.1c-0.8-0.2-1.2-1-1-1.8c0.2-0.8,1-1.3,1.8-1.1c0,0,0.1,0,0.1,0c0.8,0.3,1.2,1.1,0.9,1.9
				C258.3,283.4,257.8,283.8,257.1,283.8z M304.2,283.5c-0.7,0-1.3-0.5-1.5-1.1c-0.2-0.8,0.3-1.6,1-1.8c0.8-0.2,1.6,0.2,1.9,1
				c0.3,0.8-0.2,1.6-0.9,1.9c0,0-0.1,0-0.1,0C304.5,283.5,304.4,283.5,304.2,283.5z M252.1,282.3c-0.1,0-0.3,0-0.4-0.1
				c-0.8-0.2-1.2-1-1-1.8c0.2-0.8,1-1.3,1.8-1.1c0,0,0.1,0,0.1,0c0.8,0.3,1.2,1.1,0.9,1.9C253.3,281.9,252.7,282.3,252.1,282.3z
				 M309.3,282c-0.7,0-1.3-0.5-1.5-1.1c-0.2-0.8,0.3-1.6,1-1.8c0.8-0.2,1.6,0.2,1.9,1c0.3,0.8-0.2,1.6-0.9,1.9c0,0-0.1,0-0.1,0
				C309.6,281.9,309.4,282,309.3,282z M247.1,280.5c-0.2,0-0.3,0-0.5-0.1c-0.1,0-0.1-0.1-0.2-0.1c-0.7-0.4-1-1.3-0.7-2
				c0.4-0.7,1.2-1,1.9-0.7c0.7,0.3,1.1,1.1,0.9,1.9C248.3,280.1,247.7,280.5,247.1,280.5z M314.3,280.1c-0.5,0-1.1-0.3-1.3-0.8
				c-0.4-0.7-0.1-1.6,0.7-2c0.1,0,0.1-0.1,0.2-0.1c0.8-0.3,1.6,0.2,1.9,0.9c0.3,0.8-0.1,1.6-0.9,1.9
				C314.7,280.1,314.5,280.1,314.3,280.1z M242.2,278.4c-0.2,0-0.3,0-0.5-0.1c-0.1,0-0.3-0.1-0.4-0.2c-0.7-0.5-0.9-1.4-0.4-2.1
				c0.4-0.6,1.2-0.8,1.9-0.5c0.7,0.3,1,1.1,0.8,1.8C243.4,278,242.8,278.4,242.2,278.4z M319.1,278c-0.5,0-1-0.2-1.2-0.7
				c-0.5-0.7-0.3-1.6,0.4-2.1c0.1-0.1,0.2-0.1,0.4-0.2c0.8-0.3,1.6,0.2,1.9,0.9c0.2,0.7-0.1,1.5-0.8,1.8
				C319.6,278,319.3,278,319.1,278z M237.5,276.1c-0.2,0-0.5-0.1-0.7-0.2c-0.6-0.3-1-1.1-0.7-1.8c0.3-0.8,1.1-1.2,1.9-0.9
				c0.1,0,0.3,0.1,0.4,0.2c0.7,0.5,0.9,1.4,0.4,2.1C238.4,275.8,237.9,276.1,237.5,276.1z M323.8,275.6c-0.6,0-1.2-0.4-1.4-1
				c-0.2-0.7,0.1-1.5,0.7-1.8c0.7-0.4,1.5-0.2,2,0.5c0.5,0.7,0.3,1.6-0.4,2.1c-0.1,0.1-0.2,0.1-0.4,0.2
				C324.2,275.6,324,275.6,323.8,275.6z M232.9,273.4c-0.2,0-0.5-0.1-0.7-0.2c-0.6-0.3-1-1.1-0.7-1.8c0.3-0.8,1.1-1.2,1.9-0.9
				c0.1,0,0.3,0.1,0.4,0.2c0.7,0.5,0.9,1.4,0.4,2.1C233.8,273.2,233.3,273.4,232.9,273.4z M328.4,273c-0.6,0-1.2-0.4-1.4-1
				c-0.2-0.7,0.1-1.5,0.7-1.8c0.7-0.4,1.5-0.2,2,0.5c0.5,0.7,0.3,1.6-0.4,2.1c-0.1,0.1-0.2,0.1-0.4,0.2
				C328.7,272.9,328.6,273,328.4,273z M228.4,270.6c-0.3,0-0.6-0.1-0.8-0.3c-0.1-0.1-0.2-0.1-0.2-0.2c-0.6-0.6-0.6-1.5,0-2.1
				c0.5-0.5,1.4-0.6,2-0.1c0.6,0.5,0.8,1.4,0.3,2C229.4,270.3,228.9,270.6,228.4,270.6z M332.8,270c-0.4,0-0.8-0.1-1.1-0.4
				c-0.6-0.6-0.6-1.5,0-2.1c0.1-0.1,0.2-0.1,0.2-0.2c0.7-0.5,1.6-0.3,2.1,0.4c0.4,0.7,0.3,1.5-0.3,2
				C333.5,269.9,333.1,270,332.8,270z M224.2,267.4c-0.3,0-0.6-0.1-0.8-0.3c-0.1-0.1-0.2-0.1-0.2-0.2c-0.6-0.6-0.6-1.5,0-2.1
				c0.5-0.5,1.4-0.6,2-0.1c0.6,0.5,0.8,1.4,0.3,2C225.1,267.2,224.6,267.4,224.2,267.4z M337,266.8c-0.4,0-0.8-0.1-1.1-0.4
				c-0.6-0.6-0.6-1.5,0-2.1c0.1-0.1,0.2-0.1,0.2-0.2c0.7-0.5,1.6-0.3,2.1,0.4c0.4,0.7,0.3,1.5-0.3,2
				C337.7,266.7,337.4,266.8,337,266.8z M220.1,264c-0.3,0-0.6-0.1-0.8-0.3c-0.2-0.1-0.3-0.3-0.4-0.4c-0.5-0.7-0.3-1.6,0.4-2.1
				c0.6-0.4,1.3-0.3,1.8,0.1c0.5,0.5,0.7,1.3,0.2,1.9C221,263.8,220.6,264,220.1,264z M341.1,263.4c-0.3,0-0.6-0.1-0.8-0.3
				c-0.7-0.5-0.9-1.4-0.4-2.1c0.1-0.2,0.3-0.3,0.4-0.4c0.7-0.5,1.6-0.3,2.1,0.4c0.4,0.6,0.3,1.5-0.2,1.9
				C341.8,263.3,341.4,263.4,341.1,263.4z M216.2,260.4c-0.4,0-0.8-0.1-1.1-0.4l0,0c-0.6-0.6-0.6-1.5,0-2.1s1.5-0.6,2.1,0
				s0.6,1.5,0,2.1C217,260.3,216.6,260.4,216.2,260.4z M344.9,259.8c-0.4,0-0.8-0.1-1.1-0.4c-0.6-0.6-0.6-1.5,0-2.1
				c0.6-0.6,1.5-0.6,2.1,0c0.6,0.6,0.6,1.5,0,2.1l0,0C345.7,259.6,345.3,259.8,344.9,259.8z M212.6,256.6c-0.4,0-0.8-0.2-1.1-0.5
				c-0.5-0.5-0.5-1.3-0.1-1.8c0.5-0.7,1.4-0.9,2.1-0.4c0.2,0.1,0.3,0.3,0.4,0.4c0.5,0.7,0.3,1.6-0.4,2.1
				C213.1,256.5,212.8,256.6,212.6,256.6z M348.5,255.9c-0.5,0-1-0.2-1.2-0.7c-0.4-0.6-0.3-1.3,0.1-1.8c0.5-0.5,1.3-0.7,1.9-0.2
				c0.7,0.5,0.9,1.4,0.4,2.1c-0.1,0.2-0.3,0.3-0.4,0.4C349.1,255.8,348.8,255.9,348.5,255.9z M209.1,252.6c-0.5,0-0.9-0.2-1.2-0.6
				c-0.5-0.6-0.4-1.4,0.1-2c0.6-0.6,1.5-0.6,2.1,0c0.1,0.1,0.1,0.2,0.2,0.2c0.5,0.7,0.3,1.6-0.4,2.1
				C209.7,252.5,209.4,252.6,209.1,252.6z M351.9,251.8c-0.4,0-0.8-0.1-1.1-0.4c-0.5-0.5-0.6-1.4-0.1-2c0.5-0.6,1.4-0.8,2-0.3
				c0.7,0.5,0.9,1.4,0.4,2.1c-0.1,0.1-0.1,0.2-0.2,0.2C352.7,251.7,352.3,251.8,351.9,251.8z M206,248.4c-0.5,0-0.9-0.2-1.2-0.6
				c-0.5-0.6-0.4-1.4,0.1-2c0.6-0.6,1.5-0.6,2.1,0c0.1,0.1,0.1,0.2,0.2,0.2c0.5,0.7,0.3,1.6-0.4,2.1
				C206.5,248.3,206.2,248.4,206,248.4z M355,247.6c-0.4,0-0.8-0.1-1.1-0.4c-0.5-0.5-0.6-1.4-0.1-2c0.5-0.6,1.4-0.8,2-0.3
				c0.7,0.5,0.9,1.4,0.4,2.1c-0.1,0.1-0.1,0.2-0.2,0.2C355.8,247.4,355.4,247.6,355,247.6z M203,244c-0.5,0-1-0.2-1.2-0.7
				c-0.1-0.1-0.1-0.2-0.2-0.4c-0.3-0.8,0.2-1.6,0.9-1.9c0.7-0.2,1.5,0.1,1.8,0.7c0.4,0.7,0.2,1.5-0.5,2
				C203.6,243.9,203.3,244,203,244z M357.9,243.1c-0.2,0-0.3,0-0.5-0.1c-0.8-0.3-1.2-1.1-0.9-1.9c0-0.1,0.1-0.3,0.2-0.4
				c0.5-0.7,1.4-0.9,2.1-0.4c0.7,0.4,0.9,1.3,0.5,2C359,242.8,358.5,243.1,357.9,243.1z M200.4,239.4c-0.5,0-1-0.2-1.2-0.7
				c-0.1-0.1-0.1-0.2-0.2-0.4c-0.3-0.8,0.2-1.6,0.9-1.9c0.7-0.2,1.5,0.1,1.8,0.7c0.4,0.7,0.2,1.5-0.5,2
				C200.9,239.3,200.6,239.4,200.4,239.4z M360.5,238.5c-0.2,0-0.3,0-0.5-0.1c-0.8-0.3-1.2-1.1-0.9-1.9c0-0.1,0.1-0.3,0.2-0.4
				c0.5-0.7,1.4-0.9,2.1-0.4c0.7,0.4,0.9,1.3,0.5,2C361.6,238.2,361.1,238.5,360.5,238.5z M198,234.7c-0.6,0-1.1-0.3-1.4-0.9
				c-0.3-0.7-0.1-1.5,0.5-1.9c0.7-0.5,1.6-0.3,2.1,0.4c0.1,0.1,0.1,0.2,0.2,0.4c0.3,0.8-0.2,1.6-0.9,1.9
				C198.3,234.6,198.1,234.7,198,234.7z M362.9,233.8c-0.3,0-0.6-0.1-0.8-0.3c-0.6-0.4-0.8-1.2-0.5-1.9c0.3-0.7,1.1-1.1,1.8-0.8
				c0.8,0.3,1.2,1.1,0.9,1.9c0,0.1-0.1,0.3-0.2,0.4C363.8,233.6,363.4,233.8,362.9,233.8z M195.8,229.8c-0.6,0-1.2-0.4-1.4-0.9
				c-0.3-0.7,0-1.6,0.7-1.9c0.7-0.4,1.6-0.1,2,0.7c0,0.1,0.1,0.1,0.1,0.2c0.3,0.8-0.2,1.6-0.9,1.9
				C196.2,229.8,196,229.8,195.8,229.8z M365,228.9c-0.2,0-0.5-0.1-0.7-0.2c-0.7-0.4-1-1.2-0.7-1.9c0.3-0.7,1.1-1.1,1.9-0.9
				c0.8,0.3,1.2,1.1,0.9,1.9c0,0.1-0.1,0.1-0.1,0.2C366,228.6,365.5,228.9,365,228.9z M194,224.9c-0.6,0-1.2-0.4-1.4-1
				c0,0,0-0.1,0-0.1c-0.2-0.8,0.3-1.6,1.1-1.8c0.8-0.2,1.6,0.3,1.8,1c0.2,0.8-0.2,1.6-1,1.9C194.3,224.8,194.2,224.9,194,224.9z
				 M366.8,223.9c-0.1,0-0.2,0-0.4,0c-0.8-0.2-1.3-1-1.1-1.8c0,0,0-0.1,0-0.1c0.3-0.8,1.1-1.2,1.9-0.9c0.8,0.3,1.2,1.1,1,1.9
				C368,223.5,367.4,223.9,366.8,223.9z M368.3,218.9c-0.1,0-0.2,0-0.4,0c-0.8-0.2-1.3-1-1.1-1.8c0,0,0-0.1,0-0.1
				c0.3-0.8,1.1-1.2,1.9-0.9c0.8,0.3,1.2,1.1,1,1.9C369.5,218.4,368.9,218.9,368.3,218.9z M369.5,213.7c-0.8,0-1.5-0.7-1.5-1.5
				c0-0.2,0-0.3,0.1-0.5c0.3-0.8,1.1-1.2,1.9-0.9c0.7,0.2,1.1,1,1,1.7C370.8,213.2,370.2,213.7,369.5,213.7z M370.4,208.5
				c-0.1,0-0.2,0-0.4,0c-0.7-0.2-1.2-0.9-1.1-1.6c0.1-0.8,0.7-1.3,1.5-1.3c0.8,0,1.5,0.7,1.5,1.5c0,0.1,0,0.3,0,0.4
				C371.6,208,371,208.5,370.4,208.5z M370.9,203.2c-0.1,0-0.2,0-0.4,0c-0.7-0.2-1.2-0.9-1.1-1.6c0.1-0.8,0.7-1.3,1.5-1.3
				c0.8,0,1.5,0.7,1.5,1.5c0,0.1,0,0.3,0,0.4C372.2,202.8,371.6,203.2,370.9,203.2z M371.2,197.9c-0.8,0-1.5-0.7-1.5-1.5
				s0.7-1.5,1.5-1.5s1.5,0.7,1.5,1.5v0C372.7,197.3,372,197.9,371.2,197.9z M371.2,192.6c-0.8,0-1.5-0.7-1.5-1.5s0.7-1.5,1.5-1.5
				s1.5,0.7,1.5,1.5v0C372.7,192,372,192.6,371.2,192.6z M370.8,187.3c-0.7,0-1.3-0.5-1.5-1.1c0-0.1,0-0.3,0-0.4
				c0-0.8,0.7-1.5,1.5-1.5c0.8,0,1.4,0.6,1.5,1.3c0.1,0.7-0.4,1.4-1.1,1.6C371.1,187.3,371,187.3,370.8,187.3z M370.2,182.1
				c-0.7,0-1.3-0.5-1.5-1.2c-0.1-0.7,0.3-1.5,1-1.7c0.8-0.3,1.6,0.2,1.9,0.9c0.1,0.2,0.1,0.3,0.1,0.5
				C371.7,181.4,371,182.1,370.2,182.1z M369.3,176.9c-0.7,0-1.3-0.5-1.5-1.2c-0.1-0.7,0.3-1.5,1-1.7c0.8-0.3,1.6,0.2,1.9,0.9
				c0.1,0.2,0.1,0.3,0.1,0.5C370.8,176.2,370.1,176.9,369.3,176.9z"/>
			<path fill="#E45F58" d="M192.4,219.7c-0.4,0-0.8-0.2-1.1-0.4c-0.3-0.3-0.4-0.7-0.4-1.1c0-0.4,0.2-0.8,0.4-1.1
				c0.6-0.6,1.6-0.6,2.1,0c0.3,0.3,0.4,0.7,0.4,1.1c0,0.4-0.2,0.8-0.4,1.1S192.8,219.7,192.4,219.7z"/>
		</g>
		<g>
			<path fill="#8C42C9" d="M143.5,58.1c-0.4,0-0.8-0.2-1.1-0.4c-0.3-0.3-0.4-0.7-0.4-1.1c0-0.4,0.2-0.8,0.4-1.1
				c0.6-0.6,1.6-0.6,2.1,0c0.3,0.3,0.4,0.7,0.4,1.1c0,0.4-0.2,0.8-0.4,1.1C144.2,57.9,143.9,58.1,143.5,58.1z"/>
			<path fill="#8C42C9" d="M352.8,63.3c-0.3,0-0.6-0.1-0.8-0.3c-0.1-0.1-0.2-0.2-0.3-0.3c-0.5-0.6-0.4-1.6,0.2-2.1
				c0.6-0.5,1.5-0.4,2,0.1c0.5,0.5,0.6,1.3,0.2,1.9C353.7,63.1,353.3,63.3,352.8,63.3z M349.1,59.6c-0.3,0-0.6-0.1-0.8-0.3
				c-0.1-0.1-0.2-0.2-0.3-0.3c-0.5-0.6-0.4-1.6,0.2-2.1c0.6-0.5,1.5-0.4,2,0.1c0.5,0.5,0.6,1.3,0.2,1.9
				C350.1,59.4,349.6,59.6,349.1,59.6z M345.3,56c-0.3,0-0.6-0.1-0.8-0.3c-0.1-0.1-0.2-0.2-0.3-0.3c-0.5-0.6-0.4-1.6,0.2-2.1
				c0.6-0.5,1.5-0.4,2,0.1c0.5,0.5,0.6,1.3,0.2,1.9C346.3,55.8,345.8,56,345.3,56z M341.5,52.5c-0.3,0-0.7-0.1-1-0.4
				c-0.6-0.5-0.7-1.3-0.3-2c0.5-0.7,1.4-0.9,2.1-0.4c0.1,0.1,0.3,0.2,0.3,0.3c0.5,0.6,0.4,1.6-0.2,2.1
				C342.1,52.4,341.8,52.5,341.5,52.5z M151.4,51.4c-0.4,0-0.9-0.2-1.2-0.6c-0.5-0.6-0.4-1.6,0.2-2.1c0,0,0.1-0.1,0.1-0.1
				c0.7-0.5,1.6-0.3,2.1,0.4c0.4,0.7,0.3,1.6-0.4,2C152.1,51.3,151.7,51.4,151.4,51.4z M337.5,49.1c-0.3,0-0.7-0.1-1-0.4
				c-0.6-0.5-0.7-1.3-0.3-2c0.5-0.7,1.4-0.9,2.1-0.4c0.1,0.1,0.3,0.2,0.3,0.3c0.5,0.6,0.4,1.6-0.2,2.1
				C338.2,49,337.9,49.1,337.5,49.1z M155.6,48.2c-0.4,0-0.9-0.2-1.2-0.6c-0.5-0.6-0.4-1.6,0.2-2.1c0,0,0.1-0.1,0.1-0.1
				c0.7-0.5,1.6-0.3,2.1,0.4c0.4,0.7,0.3,1.6-0.4,2C156.2,48.1,155.9,48.2,155.6,48.2z M333.5,45.9c-0.3,0-0.7-0.1-1-0.4
				c-0.6-0.5-0.7-1.3-0.3-2c0.5-0.7,1.4-0.9,2.1-0.4c0.1,0.1,0.3,0.2,0.3,0.3c0.5,0.6,0.4,1.6-0.2,2.1
				C334.1,45.8,333.8,45.9,333.5,45.9z M159.8,45.2c-0.5,0-1-0.2-1.2-0.7c-0.5-0.7-0.3-1.6,0.4-2.1c0.6-0.5,1.5-0.3,2,0.3
				c0.5,0.6,0.4,1.6-0.2,2.1c0,0-0.1,0.1-0.1,0.1C160.4,45.1,160.1,45.2,159.8,45.2z M329.4,42.7c-0.3,0-0.6-0.1-0.9-0.3
				c-0.6-0.5-0.8-1.4-0.3-2c0.5-0.7,1.4-0.9,2.1-0.4c0.1,0.1,0.2,0.1,0.2,0.2c0.6,0.6,0.6,1.5,0,2.1
				C330.1,42.6,329.7,42.7,329.4,42.7z M164.2,42.3c-0.5,0-1-0.2-1.3-0.7c-0.4-0.7-0.2-1.6,0.4-2c0,0,0,0,0.1,0
				c0.7-0.4,1.6-0.2,2.1,0.5s0.2,1.6-0.5,2.1C164.7,42.2,164.4,42.3,164.2,42.3z M325.1,39.7c-0.3,0-0.6-0.1-0.9-0.3
				c-0.6-0.5-0.8-1.4-0.3-2c0.5-0.7,1.4-0.9,2.1-0.4c0.1,0.1,0.2,0.1,0.2,0.2c0.6,0.6,0.6,1.5,0,2.1
				C325.9,39.5,325.5,39.7,325.1,39.7z M168.6,39.5c-0.5,0-1-0.2-1.3-0.7c-0.4-0.7-0.2-1.6,0.4-2c0,0,0,0,0.1,0
				c0.7-0.4,1.6-0.2,2.1,0.5c0.4,0.7,0.2,1.6-0.5,2.1C169.1,39.4,168.8,39.5,168.6,39.5z M173,36.9c-0.6,0-1.1-0.3-1.3-0.8
				c-0.4-0.7-0.1-1.6,0.6-2c0.7-0.4,1.5-0.2,2,0.5c0.5,0.7,0.3,1.6-0.4,2.1c-0.1,0-0.1,0.1-0.2,0.1C173.5,36.8,173.3,36.9,173,36.9z
				 M320.8,36.8c-0.2,0-0.5-0.1-0.7-0.2c-0.1,0-0.1-0.1-0.2-0.1c-0.7-0.5-0.9-1.4-0.4-2.1c0.4-0.7,1.3-0.9,2-0.4
				c0.7,0.4,0.9,1.3,0.6,2C321.9,36.5,321.3,36.8,320.8,36.8z M177.6,34.3c-0.6,0-1.1-0.3-1.3-0.8c-0.4-0.7-0.1-1.6,0.6-2
				c0.7-0.4,1.5-0.2,2,0.5c0.5,0.7,0.3,1.6-0.4,2.1c-0.1,0-0.1,0.1-0.2,0.1C178,34.3,177.8,34.3,177.6,34.3z M316.4,34
				c-0.3,0-0.5-0.1-0.7-0.2c-0.7-0.4-1-1.3-0.6-2c0.4-0.7,1.3-1,2-0.7c0.1,0,0.1,0.1,0.2,0.1c0.7,0.5,0.9,1.4,0.4,2.1
				C317.3,33.8,316.9,34,316.4,34z M182.2,31.9c-0.6,0-1.1-0.3-1.3-0.8c-0.4-0.7-0.1-1.6,0.7-2l0,0c0.7-0.4,1.6-0.1,2,0.7
				c0.4,0.7,0.1,1.6-0.7,2C182.7,31.8,182.4,31.9,182.2,31.9z M311.9,31.4c-0.3,0-0.5-0.1-0.7-0.2c-0.7-0.4-1-1.3-0.6-2
				c0.4-0.7,1.3-1,2-0.7c0.1,0,0.1,0.1,0.2,0.1c0.7,0.5,0.9,1.4,0.4,2.1C312.8,31.2,312.4,31.4,311.9,31.4z M186.9,29.6
				c-0.6,0-1.1-0.3-1.3-0.8c-0.4-0.7-0.1-1.6,0.7-2l0,0c0.7-0.4,1.6-0.1,2,0.7c0.4,0.7,0.1,1.6-0.7,2
				C187.3,29.6,187.1,29.6,186.9,29.6z M307.3,29c-0.2,0-0.5-0.1-0.7-0.2c-0.7-0.4-1-1.3-0.7-2c0.4-0.7,1.3-1,2-0.7l0,0
				c0.7,0.4,1,1.3,0.7,2C308.4,28.7,307.8,29,307.3,29z M191.6,27.5c-0.5,0-1.1-0.3-1.3-0.8c-0.4-0.7-0.1-1.6,0.7-2
				c0.1,0,0.1-0.1,0.2-0.1c0.8-0.3,1.6,0.2,1.9,0.9c0.2,0.7-0.1,1.5-0.8,1.9C192,27.4,191.8,27.5,191.6,27.5z M302.6,26.7
				c-0.2,0-0.3,0-0.5-0.1c-0.1,0-0.1-0.1-0.2-0.1c-0.7-0.4-1-1.3-0.7-2c0.4-0.7,1.2-1,1.9-0.7c0.7,0.3,1.1,1.1,0.8,1.9
				C303.8,26.3,303.2,26.7,302.6,26.7z M196.4,25.5c-0.6,0-1.2-0.4-1.4-1c-0.3-0.8,0.1-1.6,0.9-1.9c0.7-0.3,1.5,0,1.9,0.7
				c0.4,0.7,0.1,1.6-0.7,2c-0.1,0-0.1,0.1-0.2,0.1C196.8,25.5,196.6,25.5,196.4,25.5z M297.8,24.6c-0.2,0-0.3,0-0.5-0.1
				c-0.1,0-0.1-0.1-0.2-0.1c-0.7-0.4-1-1.3-0.7-2c0.4-0.7,1.2-1,1.9-0.7c0.7,0.3,1.1,1.1,0.8,1.9C299.1,24.2,298.5,24.6,297.8,24.6z
				 M293,22.7c-0.2,0-0.4,0-0.5-0.1c-0.8-0.3-1.2-1.1-0.9-1.9c0.3-0.8,1.1-1.2,1.9-0.9c0,0,0,0,0.1,0c0.8,0.3,1.2,1.2,0.9,1.9
				C294.2,22.3,293.6,22.7,293,22.7z M206.2,21.9c-0.6,0-1.2-0.4-1.4-1c-0.3-0.8,0.2-1.6,0.9-1.9c0,0,0.1,0,0.1,0
				c0.8-0.2,1.6,0.3,1.8,1.1c0.2,0.8-0.3,1.6-1,1.8C206.5,21.9,206.4,21.9,206.2,21.9z M288.1,21c-0.1,0-0.2,0-0.4,0
				c0,0-0.1,0-0.1,0c-0.8-0.3-1.2-1.1-0.9-1.9c0.3-0.8,1.1-1.2,1.9-1c0.8,0.2,1.2,1,1,1.8C289.4,20.5,288.8,21,288.1,21z
				 M211.2,20.4c-0.6,0-1.2-0.4-1.4-1c-0.3-0.8,0.2-1.6,0.9-1.9c0,0,0.1,0,0.1,0c0.8-0.2,1.6,0.3,1.8,1.1c0.2,0.8-0.3,1.6-1,1.8
				C211.5,20.4,211.3,20.4,211.2,20.4z M283.1,19.5c-0.1,0-0.1,0-0.2,0c-0.1,0-0.2,0-0.3-0.1c-0.8-0.3-1.2-1.1-0.9-1.9
				c0.2-0.7,1-1.2,1.8-1c0.7,0.2,1.2,0.9,1.1,1.6C284.5,18.9,283.9,19.5,283.1,19.5z M216.2,19.1c-0.6,0-1.2-0.4-1.4-1
				c-0.3-0.8,0.2-1.6,0.9-1.9c0.1,0,0.2-0.1,0.3-0.1c0.8-0.1,1.6,0.5,1.7,1.3c0.1,0.8-0.4,1.5-1.1,1.6
				C216.5,19,216.3,19.1,216.2,19.1z M278.1,18.2c-0.1,0-0.1,0-0.2,0c-0.1,0-0.2,0-0.3-0.1c-0.8-0.3-1.2-1.1-0.9-1.9
				c0.2-0.7,1-1.2,1.8-1c0.7,0.2,1.2,0.9,1.1,1.6C279.5,17.6,278.8,18.2,278.1,18.2z M221.3,17.9c-0.7,0-1.4-0.5-1.5-1.3
				c-0.1-0.8,0.4-1.6,1.2-1.7c0.8-0.2,1.6,0.3,1.8,1.1c0.2,0.8-0.3,1.6-1.1,1.8c0,0-0.1,0-0.1,0C221.5,17.9,221.4,17.9,221.3,17.9z
				 M273,17.1c-0.1,0-0.2,0-0.3,0c-0.8-0.2-1.3-0.9-1.2-1.7c0.1-0.8,0.9-1.4,1.7-1.2c0,0,0.1,0,0.1,0c0.8,0.2,1.3,1,1.1,1.8
				C274.3,16.6,273.7,17.1,273,17.1z M226.4,16.9c-0.7,0-1.4-0.5-1.5-1.3c-0.1-0.8,0.4-1.6,1.2-1.7c0.8-0.2,1.6,0.3,1.8,1.1
				c0.2,0.8-0.3,1.6-1.1,1.8c0,0-0.1,0-0.1,0C226.6,16.9,226.5,16.9,226.4,16.9z M231.6,16.1c-0.7,0-1.4-0.5-1.5-1.3
				c-0.1-0.8,0.4-1.6,1.2-1.7c0,0,0.1,0,0.1,0c0.8-0.1,1.6,0.5,1.7,1.3c0.1,0.8-0.5,1.6-1.3,1.7C231.7,16.1,231.6,16.1,231.6,16.1z
				 M262.7,15.5c-0.1,0-0.2,0-0.3,0c-0.8-0.1-1.4-0.9-1.2-1.7c0.1-0.8,0.9-1.3,1.6-1.2c0.8,0.1,1.4,0.7,1.4,1.5
				C264.2,14.9,263.5,15.5,262.7,15.5z M236.7,15.5c-0.7,0-1.4-0.5-1.5-1.3c-0.1-0.8,0.4-1.6,1.2-1.7c0.9-0.2,1.8,0.6,1.8,1.5
				c0,0.8-0.6,1.4-1.4,1.5C236.8,15.5,236.8,15.5,236.7,15.5z M257.5,15.1C257.5,15.1,257.5,15.1,257.5,15.1c-0.9,0-1.5-0.7-1.5-1.5
				c0-0.9,0.8-1.6,1.7-1.5c0.8,0.1,1.4,0.9,1.3,1.7C258.9,14.5,258.3,15.1,257.5,15.1z M241.9,15.1c-0.8,0-1.5-0.7-1.5-1.5
				c0-0.8,0.6-1.5,1.4-1.5c0.8-0.1,1.5,0.5,1.6,1.3c0.1,0.8-0.5,1.6-1.3,1.7C242,15.1,242,15.1,241.9,15.1z M252.3,14.9
				c-0.8,0-1.5-0.7-1.5-1.5s0.7-1.5,1.5-1.5h0c0.8,0,1.5,0.7,1.5,1.5S253.1,14.9,252.3,14.9z M247.1,14.9c-0.8,0-1.5-0.7-1.5-1.5
				s0.7-1.5,1.5-1.5h0c0.8,0,1.5,0.7,1.5,1.5S247.9,14.9,247.1,14.9z"/>
			<path fill="#8C42C9" d="M356.4,67.1c-0.4,0-0.8-0.2-1.1-0.4c-0.3-0.3-0.4-0.7-0.4-1.1c0-0.4,0.2-0.8,0.4-1.1
				c0.5-0.5,1.6-0.6,2.1,0c0.3,0.3,0.4,0.7,0.4,1.1c0,0.4-0.2,0.8-0.4,1.1C357.2,66.9,356.8,67.1,356.4,67.1z"/>
		</g>
		<path fill="#2F9ED4" d="M371.2,145.3c-1.2,0-2.4-0.7-3-1.9l-2.7-5.5c0-0.1-0.1-0.1-0.1-0.1l-5-3c-1.1-0.6-1.7-1.8-1.7-3.1
			c0-1.3,0.6-2.4,1.7-3.1l5-3c0,0,0.1-0.1,0.1-0.1l2.7-5.5c0.6-1.2,1.7-1.9,3-1.9s2.4,0.7,3,1.9l2.7,5.5c0,0.1,0.1,0.1,0.1,0.1l5,3
			c1.1,0.6,1.7,1.8,1.7,3.1c0,1.3-0.6,2.4-1.7,3.1l-5,3c0,0-0.1,0.1-0.1,0.1l-2.7,5.5C373.6,144.6,372.5,145.3,371.2,145.3z
			 M371.2,121.2c-0.1,0-0.2,0.1-0.2,0.2l-2.7,5.5c-0.3,0.6-0.7,1.1-1.3,1.4l-5,3c-0.1,0.1-0.2,0.3-0.2,0.4c0,0.1,0,0.3,0.2,0.4l5,3
			c0.6,0.3,1,0.8,1.3,1.4l2.7,5.5c0,0.1,0.1,0.2,0.2,0.2c0.1,0,0.2-0.1,0.2-0.2l2.7-5.5c0.3-0.6,0.7-1.1,1.3-1.4l5-3
			c0.1-0.1,0.2-0.3,0.2-0.4c0-0.1,0-0.3-0.2-0.4l-5-3c-0.6-0.3-1-0.8-1.3-1.4l-2.7-5.5C371.4,121.3,371.3,121.2,371.2,121.2z"/>
		<path fill="#8C42C9" d="M33.9,204.3l2.1,4.2c0.1,0.3,0.3,0.5,0.6,0.6l3.9,2.3c1,0.6,1,2.1,0,2.7l-3.9,2.3
			c-0.2,0.1-0.4,0.4-0.6,0.6l-2.1,4.2c-0.5,1.1-1.9,1.1-2.4,0l-2.1-4.2c-0.1-0.3-0.3-0.5-0.6-0.6l-3.9-2.3c-1-0.6-1-2.1,0-2.7
			l3.9-2.3c0.2-0.1,0.4-0.4,0.6-0.6l2.1-4.2C32,203.2,33.4,203.2,33.9,204.3z"/>
		<g>
			<path fill="#FFFFFF" d="M122.4,30.4l2.1,4.2c0.1,0.3,0.3,0.5,0.6,0.6l3.9,2.3c1,0.6,1,2.1,0,2.7l-3.9,2.3
				c-0.2,0.1-0.4,0.4-0.6,0.6l-2.1,4.2c-0.5,1.1-1.9,1.1-2.4,0l-2.1-4.2c-0.1-0.3-0.3-0.5-0.6-0.6l-3.9-2.3c-1-0.6-1-2.1,0-2.7
				l3.9-2.3c0.2-0.1,0.4-0.4,0.6-0.6l2.1-4.2C120.5,29.3,121.9,29.3,122.4,30.4z"/>
			<path fill="#106587" d="M121.2,49.8c-1.1,0-2.1-0.6-2.6-1.7l-2.1-4.2l-3.8-2.3c-0.9-0.6-1.5-1.6-1.5-2.7c0-1.1,0.6-2.1,1.5-2.7
				l3.9-2.3l2.1-4.2c0.5-1,1.5-1.7,2.6-1.7s2.1,0.6,2.6,1.7l2.1,4.2l3.8,2.3c0.9,0.6,1.5,1.6,1.5,2.7c0,1.1-0.6,2.1-1.5,2.7
				l-3.9,2.3l-2.1,4.2C123.3,49.1,122.3,49.8,121.2,49.8z M121.2,31.5l-1.9,3.9c-0.3,0.5-0.7,1-1.1,1.3l-3.9,2.3l3.9,2.3
				c0.5,0.3,0.9,0.7,1.1,1.3l1.9,3.9l1.9-3.9c0.3-0.5,0.7-1,1.1-1.3l3.9-2.3l-3.9-2.3c-0.5-0.3-0.9-0.7-1.1-1.3L121.2,31.5z"/>
		</g>
		<path fill="#8C42C9" d="M201.3,23.7c-0.6,0-1.2-0.4-1.4-1c-0.3-0.8,0.2-1.6,0.9-1.9c0,0,0.1,0,0.1,0c0.8-0.2,1.6,0.3,1.8,1.1
			c0.2,0.8-0.3,1.6-1,1.8C201.6,23.7,201.5,23.7,201.3,23.7z"/>
	</g>
	<path fill="#59B0DC" d="M114.4,151.1c-0.5,0-1-0.2-1.2-0.7c0-0.1-0.1-0.1-0.1-0.2c-0.4-0.7-0.1-1.6,0.7-2c0.7-0.4,1.6-0.1,2,0.6
		c0.4,0.7,0.2,1.6-0.5,2C115,151.1,114.7,151.1,114.4,151.1z"/>
</g>
</svg>
