<?xml version="1.0" encoding="utf-8"?>
<!-- Generator: Adobe Illustrator 18.0.0, SVG Export Plug-In . SVG Version: 6.00 Build 0)  -->
<!DOCTYPE svg PUBLIC "-//W3C//DTD SVG 1.1//EN" "http://www.w3.org/Graphics/SVG/1.1/DTD/svg11.dtd">
<svg version="1.1" id="Layer_1" xmlns="http://www.w3.org/2000/svg" xmlns:xlink="http://www.w3.org/1999/xlink" x="0px" y="0px"
	 viewBox="0 0 263.2 261.5" enable-background="new 0 0 263.2 261.5" xml:space="preserve">
<g>
	<path fill="#F2F2F2" d="M131.6,251.3c-66.4,0-120.5-54.1-120.5-120.5c0-66.4,54.1-120.5,120.5-120.5s120.5,54.1,120.5,120.5
		C252.1,197.2,198.1,251.3,131.6,251.3z M131.6,30.3c-55.4,0-100.5,45.1-100.5,100.5s45.1,100.5,100.5,100.5
		c55.4,0,100.5-45.1,100.5-100.5S187,30.3,131.6,30.3z"/>
	<path fill="#F2F2F2" d="M131.6,212.4c-45,0-81.6-36.6-81.6-81.6c0-45,36.6-81.6,81.6-81.6s81.6,36.6,81.6,81.6
		C213.2,175.8,176.6,212.4,131.6,212.4z M131.6,69.2c-34,0-61.6,27.6-61.6,61.6s27.6,61.6,61.6,61.6c34,0,61.6-27.6,61.6-61.6
		S165.6,69.2,131.6,69.2z"/>
	<path fill="#F2F2F2" d="M131.6,173.2c-23.4,0-42.4-19-42.4-42.4c0-23.4,19-42.4,42.4-42.4s42.4,19,42.4,42.4
		C174.1,154.2,155,173.2,131.6,173.2z M131.6,108.3c-12.4,0-22.4,10.1-22.4,22.4s10.1,22.4,22.4,22.4s22.4-10.1,22.4-22.4
		S144,108.3,131.6,108.3z"/>
	<g>
		<g>
			<path fill="#106587" d="M87,169c-31.6,0-49.8-18.6-49.8-51V66.6c0-8.1,6.4-14.5,14.5-14.5s14.5,6.4,14.5,14.5v50.7
				c0,16,7.3,24.5,21.1,24.5c13.8,0,21.1-8.2,21.1-23.7V66.6c0-8.1,6.4-14.5,14.5-14.5c8.1,0,14.5,6.4,14.5,14.5v50.6
				C137.4,150.1,119.1,169,87,169z M51.8,57.1c-5.3,0-9.5,4.2-9.5,9.5V118c0,29.7,15.9,46,44.8,46c29.3,0,45.4-16.6,45.4-46.8V66.6
				c0-5.3-4.2-9.5-9.5-9.5c-5.3,0-9.5,4.2-9.5,9.5v51.5c0,18.3-9.5,28.7-26.1,28.7c-16.6,0-26.1-10.8-26.1-29.5V66.6
				C61.3,61.3,57.1,57.1,51.8,57.1z"/>
			<path fill="#106587" d="M213,167.3h-59.3c-9.2,0-15.5-5.6-15.5-13.9c0-5.3,2.5-10.2,7.2-14l31-25.4c14.1-11.5,18-16.7,18-24.3
				c0-7.3-4.5-11.7-12.2-11.7c-5.8,0-10,2.3-16,8.7c-1.1,1.3-4.4,4.2-9.9,4.2c-7.5,0-13.4-5.9-13.4-13.4c0-3.2,1.3-6.6,3.4-9.1
				c10.1-11.7,21.7-17,37.5-17c24,0,40.1,14.6,40.1,36.2V88c0,19.2-9.5,28.6-29.7,44.3l-12,9.3H213c7.1,0,13,5.8,13,13
				c0,3.5-1.4,6.7-3.8,9.1C219.8,166,216.5,167.3,213,167.3z M182.3,73c10.4,0,17.2,6.6,17.2,16.7c0,10.3-6.1,17-19.8,28.2
				l-31.1,25.4c-3.5,2.9-5.3,6.2-5.3,10.1c0,6.6,5.4,8.9,10.5,8.9H213c4.5,0,8-3.4,8-7.8c0-4.4-3.6-8-8-8H175c-1.1,0-2-0.7-2.4-1.7
				c-0.3-1,0-2.1,0.8-2.8l17.8-13.7C210.5,113.4,219,105,219,88v-0.3c0-19-13.8-31.2-35.1-31.2c-14.4,0-24.5,4.5-33.7,15.2
				c-1.4,1.6-2.2,3.9-2.2,5.9c0,4.7,3.7,8.4,8.4,8.4c3.6,0,5.7-2,6.3-2.6C168.4,77.1,174,73,182.3,73z"/>
			<g>
				<path fill="#E45F58" d="M116.9,118.1c0,20.2-11.1,32.2-29.6,32.2c-18.5,0-29.6-12.3-29.6-33V84.3c0-3.5-2.9-6.2-6.4-5.9
					c0,0-0.1,0-0.1,0c-3.1,0.2-5.5,2.8-5.5,5.9l0,33.7c0,27.8,14.3,42.5,41.3,42.5c27.4,0,41.9-15,41.9-43.3l0-12.7
					c0-2.8-1.9-5.2-4.7-5.8c0,0-0.1,0-0.1,0c-3.7-0.8-7.3,2-7.3,5.8V118.1z"/>
				<path fill="#E45F58" d="M212.8,150h-37.7c-1.9,0-3.8-0.8-4.9-2.4c-2.1-2.8-1.4-6.4,1.1-8.4l17.8-13.7
					c10.7-8.3,17.7-14.2,21.9-20.7c2.7-4.3-1.4-9.6-6.3-8.3c-0.1,0-0.2,0.1-0.3,0.1c-1.5,0.4-2.7,1.5-3.4,3c-3,6.8-9.2,12.9-19.1,21
					l-31,25.4c-2.7,2.2-4,4.6-4,7.4c0,4.7,4.4,5.4,7,5.4H213c2.6,0,4.7-2.1,4.4-4.7C217.3,151.7,215.2,150,212.8,150z"/>
			</g>
		</g>
		<g>
			<path fill="#E45F58" d="M85.9,222.6l-1.9-1.8l-14.9-14.9c-4.9-4.9-4.9-12.8,0-17.7c2.4-2.4,5.5-3.7,8.8-3.7c2.9,0,5.7,1,8,2.9
				c2.2-1.9,5-2.9,8-2.9c3.3,0,6.5,1.3,8.8,3.7c2.4,2.4,3.7,5.5,3.7,8.8s-1.3,6.5-3.7,8.8L85.9,222.6z M77.9,189.5
				c-2,0-3.9,0.8-5.3,2.2c-2.9,2.9-2.9,7.7,0,10.6l13.3,13.3l13.3-13.3c1.4-1.4,2.2-3.3,2.2-5.3s-0.8-3.9-2.2-5.3
				c-1.4-1.4-3.3-2.2-5.3-2.2c-2,0-3.9,0.8-5.3,2.2l-2.7,2.7l-2.7-2.7C81.8,190.3,79.9,189.5,77.9,189.5z"/>
			<g>
				<path fill="#E45F58" d="M131.7,216.1c-1.4,0-2.5-1.1-2.5-2.5v-21c0-1.4,1.1-2.5,2.5-2.5c1.4,0,2.5,1.1,2.5,2.5v21
					C134.2,214.9,133,216.1,131.7,216.1z"/>
				<path fill="#E45F58" d="M142.2,205.6h-21c-1.4,0-2.5-1.1-2.5-2.5s1.1-2.5,2.5-2.5h21c1.4,0,2.5,1.1,2.5,2.5
					S143.5,205.6,142.2,205.6z"/>
			</g>
			<g>
				<path fill="#E45F58" d="M177.5,224.1c-11.6,0-21-9.4-21-21s9.4-21,21-21s21,9.4,21,21S189,224.1,177.5,224.1z M177.5,187.1
					c-8.8,0-16,7.2-16,16s7.2,16,16,16s16-7.2,16-16S186.3,187.1,177.5,187.1z"/>
				<polygon fill="#E45F58" points="164.5,216.5 161.4,212.6 175,201.9 175,184.6 180,184.6 180,204.3 				"/>
				
					<rect x="175.5" y="206.3" transform="matrix(0.7836 0.6213 -0.6213 0.7836 169.7026 -69.5646)" fill="#E45F58" width="18.5" height="5"/>
			</g>
		</g>
	</g>
</g>
</svg>
